SplineFontDB: 3.2
FontName: FdSymbolA-Medium
FullName: FdSymbolA-Medium
FamilyName: FdSymbolA
Weight: Medium
Copyright: Copyright (c) 2011-2025, Michael Ummels. This Font Software is licensed under the SIL Open Font License, Version 1.1.
Version: 1.010
ItalicAngle: 0
UnderlinePosition: -100
UnderlineWidth: 50
Ascent: 800
Descent: 200
InvalidEm: 0
LayerCount: 2
Layer: 0 0 "Back" 1
Layer: 1 0 "Fore" 0
OS2Version: 0
OS2_WeightWidthSlopeOnly: 0
OS2_UseTypoMetrics: 0
CreationTime: 1739799029
ModificationTime: 1739799029
OS2TypoAscent: 0
OS2TypoAOffset: 1
OS2TypoDescent: 0
OS2TypoDOffset: 1
OS2TypoLinegap: 0
OS2WinAscent: 0
OS2WinAOffset: 1
OS2WinDescent: 0
OS2WinDOffset: 1
HheadAscent: 0
HheadAOffset: 1
HheadDescent: 0
HheadDOffset: 1
OS2Vendor: 'PfEd'
DEI: 91125
Encoding: Custom
UnicodeInterp: none
NameList: AGL For New Fonts
DisplaySize: -48
AntiAlias: 1
FitToEm: 0
BeginPrivate: 2
BlueValues 31 [-10 0 546 556 707 717 754 764]
OtherBlues 11 [-230 -220]
EndPrivate
BeginChars: 256 204

StartChar: dotmath
Encoding: 0 8901 0
Width: 368
Flags: HW
HStem: 206 188<144.251 223.749>
VStem: 90 188<260.251 339.749>
LayerCount: 2
Fore
SplineSet
278 300 m 0
 278 281 257 260 240 244 c 0
 224 227 203 206 184 206 c 0
 165 206 144 227 128 244 c 0
 111 260 90 281 90 300 c 0
 90 319 111 340 128 356 c 0
 144 373 165 394 184 394 c 0
 203 394 224 373 240 356 c 0
 257 340 278 319 278 300 c 0
EndSplineSet
EndChar

StartChar: sym000
Encoding: 1 -1 1
Width: 751
Flags: HW
HStem: 206 188<144.251 223.749 527.251 606.749>
VStem: 90 188<260.251 339.749> 473 188<260.251 339.749>
LayerCount: 2
Fore
SplineSet
278 300 m 0
 278 281 257 260 240 244 c 0
 224 227 203 206 184 206 c 0
 165 206 144 227 128 244 c 0
 111 260 90 281 90 300 c 0
 90 319 111 340 128 356 c 0
 144 373 165 394 184 394 c 0
 203 394 224 373 240 356 c 0
 257 340 278 319 278 300 c 0
661 300 m 0
 661 281 640 260 623 244 c 0
 607 227 586 206 567 206 c 0
 548 206 527 227 511 244 c 0
 494 260 473 281 473 300 c 0
 473 319 494 340 511 356 c 0
 527 373 548 394 567 394 c 0
 586 394 607 373 623 356 c 0
 640 340 661 319 661 300 c 0
EndSplineSet
EndChar

StartChar: uni2236
Encoding: 2 8758 2
Width: 368
Flags: HW
HStem: 14 189<144.251 223.749> 398 188<144.251 223.749>
VStem: 90 188<68.8958 148.074 451.926 531.104>
LayerCount: 2
Fore
SplineSet
278 108 m 0
 278 90 257 69 240 52 c 0
 224 35 203 14 184 14 c 0
 165 14 144 35 128 52 c 0
 111 69 90 90 90 108 c 0
 90 127 111 148 128 165 c 0
 144 182 165 203 184 203 c 0
 203 203 224 182 240 165 c 0
 257 148 278 127 278 108 c 0
278 492 m 0
 278 473 257 452 240 435 c 0
 224 418 203 398 184 398 c 0
 165 398 144 418 128 435 c 0
 111 452 90 473 90 492 c 0
 90 510 111 531 128 548 c 0
 144 565 165 586 184 586 c 0
 203 586 224 565 240 548 c 0
 257 531 278 510 278 492 c 0
EndSplineSet
EndChar

StartChar: sym001
Encoding: 3 -1 3
Width: 717
Flags: HW
HStem: 71 188<183.251 262.749> 341 188<453.916 533.306>
VStem: 129 188<124.926 204.104> 400 188<396.244 474.641>
LayerCount: 2
Fore
SplineSet
317 165 m 0
 317 146 296 125 279 108 c 0
 263 91 242 71 223 71 c 0
 204 71 183 91 167 108 c 0
 150 125 129 146 129 165 c 0
 129 183 150 204 167 221 c 0
 183 238 204 259 223 259 c 0
 242 259 263 238 279 221 c 0
 296 204 317 183 317 165 c 0
400 435 m 0
 400 462 465 529 494 529 c 0
 513 529 533 509 550 492 c 0
 567 475 588 454 588 435 c 0
 588 417 567 396 550 379 c 0
 533 362 513 341 494 341 c 0
 466 341 400 410 400 435 c 0
EndSplineSet
EndChar

StartChar: sym002
Encoding: 4 -1 4
Width: 717
Flags: HW
HStem: 71 188<453.916 533.306> 341 188<183.251 262.749>
VStem: 129 188<395.896 475.074> 400 188<125.359 203.756>
LayerCount: 2
Fore
SplineSet
400 165 m 0
 400 190 466 259 494 259 c 0
 513 259 533 238 550 221 c 0
 567 204 588 183 588 165 c 0
 588 146 567 125 550 108 c 0
 533 91 513 71 494 71 c 0
 465 71 400 138 400 165 c 0
317 435 m 0
 317 417 296 396 279 379 c 0
 263 362 242 341 223 341 c 0
 204 341 183 362 167 379 c 0
 150 396 129 417 129 435 c 0
 129 454 150 475 167 492 c 0
 183 509 204 529 223 529 c 0
 242 529 263 509 279 492 c 0
 296 475 317 454 317 435 c 0
EndSplineSet
EndChar

StartChar: uni22EF
Encoding: 5 8943 5
Width: 1134
Flags: HW
HStem: 206 188<144.251 223.749 527.251 606.749 910.251 989.749>
VStem: 90 188<260.251 339.749> 473 188<260.251 339.749> 856 188<260.251 339.749>
CounterMasks: 1 70
LayerCount: 2
Fore
SplineSet
278 300 m 0
 278 281 257 260 240 244 c 0
 224 227 203 206 184 206 c 0
 165 206 144 227 128 244 c 0
 111 260 90 281 90 300 c 0
 90 319 111 340 128 356 c 0
 144 373 165 394 184 394 c 0
 203 394 224 373 240 356 c 0
 257 340 278 319 278 300 c 0
661 300 m 0
 661 281 640 260 623 244 c 0
 607 227 586 206 567 206 c 0
 548 206 527 227 511 244 c 0
 494 260 473 281 473 300 c 0
 473 319 494 340 511 356 c 0
 527 373 548 394 567 394 c 0
 586 394 607 373 623 356 c 0
 640 340 661 319 661 300 c 0
1044 300 m 0
 1044 281 1023 260 1006 244 c 0
 990 227 969 206 950 206 c 0
 931 206 910 227 894 244 c 0
 877 260 856 281 856 300 c 0
 856 319 877 340 894 356 c 0
 910 373 931 394 950 394 c 0
 969 394 990 373 1006 356 c 0
 1023 340 1044 319 1044 300 c 0
EndSplineSet
EndChar

StartChar: uni22EE
Encoding: 6 8942 6
Width: 368
Flags: HW
HStem: -177 188<144.251 223.749> 206 188<144.251 223.749> 589 188<144.251 223.749>
VStem: 90 188<-122.749 -43.2512 260.251 339.749 643.251 722.749>
CounterMasks: 1 e0
LayerCount: 2
Fore
SplineSet
278 -83 m 0
 278 -102 257 -123 240 -139 c 0
 224 -156 203 -177 184 -177 c 0
 165 -177 144 -156 128 -139 c 0
 111 -123 90 -102 90 -83 c 0
 90 -64 111 -43 128 -27 c 0
 144 -10 165 11 184 11 c 0
 203 11 224 -10 240 -27 c 0
 257 -43 278 -64 278 -83 c 0
278 300 m 0
 278 281 257 260 240 244 c 0
 224 227 203 206 184 206 c 0
 165 206 144 227 128 244 c 0
 111 260 90 281 90 300 c 0
 90 319 111 340 128 356 c 0
 144 373 165 394 184 394 c 0
 203 394 224 373 240 356 c 0
 257 340 278 319 278 300 c 0
278 683 m 0
 278 664 257 643 240 627 c 0
 224 610 203 589 184 589 c 0
 165 589 144 610 128 627 c 0
 111 643 90 664 90 683 c 0
 90 702 111 723 128 739 c 0
 144 756 165 777 184 777 c 0
 203 777 224 756 240 739 c 0
 257 723 278 702 278 683 c 0
EndSplineSet
EndChar

StartChar: uni22F0
Encoding: 7 8944 7
Width: 988
Flags: HW
HStem: -65 188<183.251 262.749> 206 188<453.926 533.306> 477 188<725.359 803.756>
VStem: 129 188<-10.3057 69.0737> 400 188<260.251 339.749> 671 188<530.916 610.306>
CounterMasks: 1 fc
LayerCount: 2
Fore
SplineSet
317 29 m 0
 317 10 296 -10 279 -27 c 0
 263 -44 242 -65 223 -65 c 0
 204 -65 183 -44 167 -27 c 0
 150 -10 129 10 129 29 c 0
 129 48 150 69 167 86 c 0
 183 102 204 123 223 123 c 0
 242 123 263 102 279 86 c 0
 296 69 317 48 317 29 c 0
588 300 m 0
 588 281 567 260 550 244 c 0
 533 227 513 206 494 206 c 0
 475 206 454 227 437 244 c 0
 421 260 400 281 400 300 c 0
 400 319 421 340 437 356 c 0
 454 373 475 394 494 394 c 0
 513 394 533 373 550 356 c 0
 567 340 588 319 588 300 c 0
765 477 m 0
 738 477 671 542 671 571 c 0
 671 590 691 610 708 627 c 0
 725 644 746 665 765 665 c 0
 783 665 804 644 821 627 c 0
 838 610 859 590 859 571 c 0
 859 543 790 477 765 477 c 0
EndSplineSet
EndChar

StartChar: uni22F1
Encoding: 8 8945 8
Width: 988
Flags: HW
HStem: -65 188<725.359 803.756> 206 188<453.926 533.306> 477 188<183.251 262.749>
VStem: 129 188<530.926 610.306> 400 188<260.251 339.749> 671 188<-10.3057 69.0836>
CounterMasks: 1 fc
LayerCount: 2
Fore
SplineSet
765 123 m 0
 790 123 859 57 859 29 c 0
 859 10 838 -10 821 -27 c 0
 804 -44 783 -65 765 -65 c 0
 746 -65 725 -44 708 -27 c 0
 691 -10 671 10 671 29 c 0
 671 58 738 123 765 123 c 0
588 300 m 0
 588 281 567 260 550 244 c 0
 533 227 513 206 494 206 c 0
 475 206 454 227 437 244 c 0
 421 260 400 281 400 300 c 0
 400 319 421 340 437 356 c 0
 454 373 475 394 494 394 c 0
 513 394 533 373 550 356 c 0
 567 340 588 319 588 300 c 0
317 571 m 0
 317 552 296 531 279 514 c 0
 263 498 242 477 223 477 c 0
 204 477 183 498 167 514 c 0
 150 531 129 552 129 571 c 0
 129 590 150 610 167 627 c 0
 183 644 204 665 223 665 c 0
 242 665 263 644 279 627 c 0
 296 610 317 590 317 571 c 0
EndSplineSet
EndChar

StartChar: sym003
Encoding: 9 -1 9
Width: 720
Flags: HW
HStem: 33 188<169.916 249.306> 206 188<470.694 550.074> 379 188<169.916 249.306>
VStem: 116 188<87.3588 165.756 434.244 512.641> 416 188<260.251 339.749>
LayerCount: 2
Fore
SplineSet
604 300 m 0x58
 604 281 583 260 567 244 c 0
 550 227 529 206 510 206 c 0
 491 206 471 227 454 244 c 0
 437 260 416 281 416 300 c 0
 416 319 437 340 454 356 c 0
 471 373 491 394 510 394 c 0
 529 394 550 373 567 356 c 0
 583 340 604 319 604 300 c 0x58
116 473 m 0
 116 500 181 567 210 567 c 0
 229 567 249 547 266 530 c 0
 283 513 304 492 304 473 c 0
 304 455 283 434 266 417 c 0
 249 400 229 379 210 379 c 0x38
 182 379 116 448 116 473 c 0
116 127 m 0
 116 152 182 221 210 221 c 0
 229 221 249 200 266 183 c 0
 283 166 304 145 304 127 c 0
 304 108 283 87 266 70 c 0
 249 53 229 33 210 33 c 0x98
 181 33 116 100 116 127 c 0
EndSplineSet
EndChar

StartChar: therefore
Encoding: 10 8756 10
Width: 720
Flags: HW
HStem: 56 188<147.359 225.756 494.244 572.641> 356 188<320.251 399.749>
VStem: 93 188<109.916 189.306> 266 188<410.694 490.074> 439 188<109.916 189.306>
LayerCount: 2
Fore
SplineSet
454 450 m 0xd0
 454 431 433 411 416 394 c 0
 400 377 379 356 360 356 c 0
 341 356 320 377 304 394 c 0
 287 411 266 431 266 450 c 0
 266 469 287 490 304 507 c 0
 320 523 341 544 360 544 c 0
 379 544 400 523 416 507 c 0
 433 490 454 469 454 450 c 0xd0
187 56 m 0
 160 56 93 121 93 150 c 0
 93 169 113 189 130 206 c 0
 147 223 168 244 187 244 c 0
 205 244 226 223 243 206 c 0
 260 189 281 169 281 150 c 0xe0
 281 122 212 56 187 56 c 0
533 56 m 0
 508 56 439 122 439 150 c 0
 439 169 460 189 477 206 c 0
 494 223 515 244 533 244 c 0
 552 244 573 223 590 206 c 0
 607 189 627 169 627 150 c 0xc8
 627 121 560 56 533 56 c 0
EndSplineSet
EndChar

StartChar: sym004
Encoding: 11 -1 11
Width: 720
Flags: HW
HStem: 33 188<470.694 550.084> 206 188<169.926 249.306> 379 188<470.694 550.084>
VStem: 116 188<260.251 339.749> 416 188<87.3588 165.756 434.244 512.641>
LayerCount: 2
Fore
SplineSet
304 300 m 0x58
 304 281 283 260 266 244 c 0
 249 227 229 206 210 206 c 0
 191 206 170 227 153 244 c 0
 137 260 116 281 116 300 c 0
 116 319 137 340 153 356 c 0
 170 373 191 394 210 394 c 0
 229 394 249 373 266 356 c 0
 283 340 304 319 304 300 c 0x58
510 221 m 0x98
 538 221 604 152 604 127 c 0
 604 100 539 33 510 33 c 0
 491 33 471 53 454 70 c 0
 437 87 416 108 416 127 c 0
 416 145 437 166 454 183 c 0
 471 200 491 221 510 221 c 0x98
510 567 m 0x38
 539 567 604 500 604 473 c 0
 604 448 538 379 510 379 c 0
 491 379 471 400 454 417 c 0
 437 434 416 455 416 473 c 0
 416 492 437 513 454 530 c 0
 471 547 491 567 510 567 c 0x38
EndSplineSet
EndChar

StartChar: uni2235
Encoding: 12 8757 12
Width: 720
Flags: HW
HStem: 56 188<320.251 399.749> 356 188<147.359 225.756 494.244 572.641>
VStem: 93 188<410.694 490.084> 266 188<109.926 189.306> 439 188<410.694 490.084>
LayerCount: 2
Fore
SplineSet
454 150 m 0xd0
 454 131 433 110 416 93 c 0
 400 77 379 56 360 56 c 0
 341 56 320 77 304 93 c 0
 287 110 266 131 266 150 c 0
 266 169 287 189 304 206 c 0
 320 223 341 244 360 244 c 0
 379 244 400 223 416 206 c 0
 433 189 454 169 454 150 c 0xd0
533 544 m 0
 560 544 627 479 627 450 c 0
 627 431 607 411 590 394 c 0
 573 377 552 356 533 356 c 0
 515 356 494 377 477 394 c 0
 460 411 439 431 439 450 c 0xc8
 439 478 508 544 533 544 c 0
187 544 m 0
 212 544 281 478 281 450 c 0
 281 431 260 411 243 394 c 0
 226 377 205 356 187 356 c 0
 168 356 147 377 130 394 c 0
 113 411 93 431 93 450 c 0xe0
 93 479 160 544 187 544 c 0
EndSplineSet
EndChar

StartChar: uni2237
Encoding: 13 8759 13
Width: 720
Flags: HW
HStem: 30 188<144.251 223.749 496.251 575.749> 382 188<144.251 223.749 496.251 575.749>
VStem: 90 188<84.2512 163.749 436.251 515.749> 442 188<84.2512 163.749 436.251 515.749>
LayerCount: 2
Fore
SplineSet
630 476 m 0
 630 457 609 436 592 420 c 0
 576 403 555 382 536 382 c 0
 517 382 496 403 480 420 c 0
 463 436 442 457 442 476 c 0
 442 495 463 516 480 532 c 0
 496 549 517 570 536 570 c 0
 555 570 576 549 592 532 c 0
 609 516 630 495 630 476 c 0
278 476 m 0
 278 457 257 436 240 420 c 0
 224 403 203 382 184 382 c 0
 165 382 144 403 128 420 c 0
 111 436 90 457 90 476 c 0
 90 495 111 516 128 532 c 0
 144 549 165 570 184 570 c 0
 203 570 224 549 240 532 c 0
 257 516 278 495 278 476 c 0
278 124 m 0
 278 105 257 84 240 68 c 0
 224 51 203 30 184 30 c 0
 165 30 144 51 128 68 c 0
 111 84 90 105 90 124 c 0
 90 143 111 164 128 180 c 0
 144 197 165 218 184 218 c 0
 203 218 224 197 240 180 c 0
 257 164 278 143 278 124 c 0
630 124 m 0
 630 105 609 84 592 68 c 0
 576 51 555 30 536 30 c 0
 517 30 496 51 480 68 c 0
 463 84 442 105 442 124 c 0
 442 143 463 164 480 180 c 0
 496 197 517 218 536 218 c 0
 555 218 576 197 592 180 c 0
 609 164 630 143 630 124 c 0
EndSplineSet
EndChar

StartChar: minus
Encoding: 14 8722 14
Width: 720
Flags: HW
HStem: 257 86<90 630>
LayerCount: 2
Fore
SplineSet
630 343 m 1
 630 257 l 1
 90 257 l 1
 90 343 l 1
 630 343 l 1
EndSplineSet
EndChar

StartChar: uni2215
Encoding: 15 8725 15
Width: 720
Flags: HW
LayerCount: 2
Fore
SplineSet
574 575 m 1
 635 514 l 1
 146 25 l 1
 85 86 l 1
 574 575 l 1
EndSplineSet
EndChar

StartChar: uni2216
Encoding: 16 8726 16
Width: 720
Flags: HW
LayerCount: 2
Fore
SplineSet
85 514 m 1
 146 575 l 1
 635 86 l 1
 574 25 l 1
 85 514 l 1
EndSplineSet
EndChar

StartChar: plus
Encoding: 17 43 17
Width: 720
Flags: HW
HStem: 257 86<90 317 403 630>
VStem: 317 86<30 257 343 570>
LayerCount: 2
Fore
SplineSet
317 570 m 1
 403 570 l 1
 403 343 l 1
 630 343 l 1
 630 257 l 1
 403 257 l 1
 403 30 l 1
 317 30 l 1
 317 257 l 1
 90 257 l 1
 90 343 l 1
 317 343 l 1
 317 570 l 1
EndSplineSet
EndChar

StartChar: multiply
Encoding: 18 215 18
Width: 720
Flags: HW
LayerCount: 2
Fore
SplineSet
85 514 m 1
 146 575 l 1
 360 361 l 1
 574 575 l 1
 635 514 l 1
 421 300 l 1
 635 86 l 1
 574 25 l 1
 360 239 l 1
 146 25 l 1
 85 86 l 1
 299 300 l 1
 85 514 l 1
EndSplineSet
EndChar

StartChar: uni2238
Encoding: 19 8760 19
Width: 720
Flags: HW
HStem: 257 86<90 630> 424 142<325.132 394.868>
VStem: 290 141<460.132 529.868>
LayerCount: 2
Fore
SplineSet
90 257 m 1
 90 343 l 1
 630 343 l 1
 630 257 l 1
 90 257 l 1
431 495 m 0
 431 481 415 465 402 453 c 0
 390 440 374 424 360 424 c 0
 346 424 330 440 318 453 c 0
 305 465 290 481 290 495 c 0
 290 509 305 525 318 537 c 0
 330 550 346 566 360 566 c 0
 374 566 390 550 402 537 c 0
 415 525 431 509 431 495 c 0
EndSplineSet
EndChar

StartChar: uni2A2A
Encoding: 20 10794 20
Width: 720
Flags: HW
HStem: 35 141<325.132 394.868> 257 86<90 630>
VStem: 290 141<70.1323 139.868>
LayerCount: 2
Fore
SplineSet
630 343 m 1
 630 257 l 1
 90 257 l 1
 90 343 l 1
 630 343 l 1
431 105 m 0
 431 91 415 75 402 63 c 0
 390 50 374 35 360 35 c 0
 346 35 330 50 318 63 c 0
 305 75 290 91 290 105 c 0
 290 119 305 135 318 147 c 0
 330 160 346 176 360 176 c 0
 374 176 390 160 402 147 c 0
 415 135 431 119 431 105 c 0
EndSplineSet
EndChar

StartChar: divide
Encoding: 21 247 21
Width: 720
Flags: HW
HStem: 35 141<325.132 394.868> 257 86<90 630> 424 142<325.132 394.868>
VStem: 290 141<70.1323 139.868 460.132 529.868>
LayerCount: 2
Fore
SplineSet
630 343 m 1
 630 257 l 1
 90 257 l 1
 90 343 l 1
 630 343 l 1
431 495 m 0
 431 481 415 465 402 453 c 0
 390 440 374 424 360 424 c 0
 346 424 330 440 318 453 c 0
 305 465 290 481 290 495 c 0
 290 509 305 525 318 537 c 0
 330 550 346 566 360 566 c 0
 374 566 390 550 402 537 c 0
 415 525 431 509 431 495 c 0
431 105 m 0
 431 91 415 75 402 63 c 0
 390 50 374 35 360 35 c 0
 346 35 330 50 318 63 c 0
 305 75 290 91 290 105 c 0
 290 119 305 135 318 147 c 0
 330 160 346 176 360 176 c 0
 374 176 390 160 402 147 c 0
 415 135 431 119 431 105 c 0
EndSplineSet
EndChar

StartChar: uni2A2B
Encoding: 22 10795 22
Width: 720
Flags: HW
HStem: 35 141<481.915 550.865> 257 86<90 630> 424 142<168.51 238.496>
VStem: 133 141<459.512 530.488> 446 141<69.6762 140.488>
LayerCount: 2
Fore
SplineSet
630 343 m 1
 630 257 l 1
 90 257 l 1
 90 343 l 1
 630 343 l 1
274 495 m 0
 274 481 258 465 246 453 c 0
 233 440 218 424 204 424 c 0
 189 424 174 440 161 453 c 0
 149 465 133 481 133 495 c 0
 133 509 149 525 161 537 c 0
 174 550 189 566 204 566 c 0
 218 566 233 550 246 537 c 0
 258 525 274 509 274 495 c 0
517 35 m 0
 495 35 446 86 446 105 c 0
 446 119 462 135 474 147 c 0
 487 160 502 176 517 176 c 0
 531 176 546 160 559 147 c 0
 571 135 587 119 587 105 c 0
 587 85 537 35 517 35 c 0
EndSplineSet
EndChar

StartChar: uni2A2C
Encoding: 23 10796 23
Width: 720
Flags: HW
HStem: 35 141<168.915 237.865> 257 86<90 630> 424 142<481.51 551.496>
VStem: 133 141<69.6762 140.488> 446 141<459.512 530.488>
LayerCount: 2
Fore
SplineSet
630 343 m 1
 630 257 l 1
 90 257 l 1
 90 343 l 1
 630 343 l 1
587 495 m 0
 587 481 571 465 559 453 c 0
 546 440 531 424 517 424 c 0
 502 424 487 440 474 453 c 0
 462 465 446 481 446 495 c 0
 446 509 462 525 474 537 c 0
 487 550 502 566 517 566 c 0
 531 566 546 550 559 537 c 0
 571 525 587 509 587 495 c 0
204 35 m 0
 182 35 133 86 133 105 c 0
 133 119 149 135 161 147 c 0
 174 160 189 176 204 176 c 0
 218 176 233 160 246 147 c 0
 258 135 274 119 274 105 c 0
 274 85 224 35 204 35 c 0
EndSplineSet
EndChar

StartChar: uni223A
Encoding: 24 8762 24
Width: 720
Flags: HW
HStem: 35 141<168.915 237.865 481.915 550.865> 257 86<90 630> 424 142<168.51 238.496 481.51 551.496>
VStem: 133 141<69.6762 140.488 459.512 530.488> 446 141<69.6762 140.488 459.512 530.488>
LayerCount: 2
Fore
SplineSet
630 343 m 1
 630 257 l 1
 90 257 l 1
 90 343 l 1
 630 343 l 1
274 495 m 0
 274 481 258 465 246 453 c 0
 233 440 218 424 204 424 c 0
 189 424 174 440 161 453 c 0
 149 465 133 481 133 495 c 0
 133 509 149 525 161 537 c 0
 174 550 189 566 204 566 c 0
 218 566 233 550 246 537 c 0
 258 525 274 509 274 495 c 0
587 495 m 0
 587 481 571 465 559 453 c 0
 546 440 531 424 517 424 c 0
 502 424 487 440 474 453 c 0
 462 465 446 481 446 495 c 0
 446 509 462 525 474 537 c 0
 487 550 502 566 517 566 c 0
 531 566 546 550 559 537 c 0
 571 525 587 509 587 495 c 0
204 35 m 0
 182 35 133 86 133 105 c 0
 133 119 149 135 161 147 c 0
 174 160 189 176 204 176 c 0
 218 176 233 160 246 147 c 0
 258 135 274 119 274 105 c 0
 274 85 224 35 204 35 c 0
517 35 m 0
 495 35 446 86 446 105 c 0
 446 119 462 135 474 147 c 0
 487 160 502 176 517 176 c 0
 531 176 546 160 559 147 c 0
 571 135 587 119 587 105 c 0
 587 85 537 35 517 35 c 0
EndSplineSet
EndChar

StartChar: plusminus
Encoding: 25 177 25
Width: 720
Flags: HW
HStem: -38 86<90 630> 325 86<90 317 403 630>
VStem: 317 86<97 325 411 638>
LayerCount: 2
Fore
SplineSet
317 638 m 1
 403 638 l 1
 403 411 l 1
 630 411 l 1
 630 325 l 1
 403 325 l 1
 403 97 l 1
 317 97 l 1
 317 325 l 1
 90 325 l 1
 90 411 l 1
 317 411 l 1
 317 638 l 1
630 48 m 1
 630 -38 l 1
 90 -38 l 1
 90 48 l 1
 630 48 l 1
EndSplineSet
EndChar

StartChar: uni2213
Encoding: 26 8723 26
Width: 720
Flags: HW
HStem: 189 86<90 317 403 630> 552 86<90 630>
VStem: 317 86<-38 189 275 503>
LayerCount: 2
Fore
SplineSet
317 503 m 1
 403 503 l 1
 403 275 l 1
 630 275 l 1
 630 189 l 1
 403 189 l 1
 403 -38 l 1
 317 -38 l 1
 317 189 l 1
 90 189 l 1
 90 275 l 1
 317 275 l 1
 317 503 l 1
630 638 m 1
 630 552 l 1
 90 552 l 1
 90 638 l 1
 630 638 l 1
EndSplineSet
EndChar

StartChar: uni2214
Encoding: 27 8724 27
Width: 720
Flags: HW
HStem: 189 86<90 317 403 630> 524 141<324.676 395.488>
VStem: 290 141<559.915 628.865> 317 86<-38 189 275 503>
LayerCount: 2
Fore
SplineSet
317 503 m 1xd0
 403 503 l 1
 403 275 l 1
 630 275 l 1
 630 189 l 1
 403 189 l 1
 403 -38 l 1
 317 -38 l 1
 317 189 l 1
 90 189 l 1
 90 275 l 1
 317 275 l 1
 317 503 l 1xd0
290 595 m 0xe0
 290 615 340 665 360 665 c 0
 374 665 390 649 402 637 c 0
 415 624 431 609 431 595 c 0
 431 580 415 565 402 552 c 0
 390 540 374 524 360 524 c 0
 341 524 290 573 290 595 c 0xe0
EndSplineSet
EndChar

StartChar: uni2A25
Encoding: 28 10789 28
Width: 720
Flags: HW
HStem: -65 141<324.676 395.488> 325 86<90 317 403 630>
VStem: 290 141<-28.8647 40.0851> 317 86<97 325 411 638>
LayerCount: 2
Fore
SplineSet
317 638 m 1xd0
 403 638 l 1
 403 411 l 1
 630 411 l 1
 630 325 l 1
 403 325 l 1
 403 97 l 1
 317 97 l 1
 317 325 l 1
 90 325 l 1
 90 411 l 1
 317 411 l 1
 317 638 l 1xd0
290 5 m 0xe0
 290 27 341 76 360 76 c 0
 374 76 390 60 402 48 c 0
 415 35 431 20 431 5 c 0
 431 -9 415 -24 402 -37 c 0
 390 -49 374 -65 360 -65 c 0
 340 -65 290 -15 290 5 c 0xe0
EndSplineSet
EndChar

StartChar: uni2A30
Encoding: 29 10800 29
Width: 720
Flags: HW
HStem: 497 141<324.676 395.488>
VStem: 290 141<532.915 601.865>
LayerCount: 2
Fore
SplineSet
85 447 m 1
 146 507 l 1
 360 293 l 1
 574 507 l 1
 635 447 l 1
 420 232 l 1
 635 18 l 1
 574 -42 l 1
 360 172 l 1
 146 -42 l 1
 85 18 l 1
 300 232 l 1
 85 447 l 1
290 568 m 0
 290 588 340 638 360 638 c 0
 374 638 390 622 402 610 c 0
 415 597 431 582 431 568 c 0
 431 553 415 538 402 525 c 0
 390 513 374 497 360 497 c 0
 341 497 290 546 290 568 c 0
EndSplineSet
EndChar

StartChar: uni2A31
Encoding: 30 10801 30
Width: 720
Flags: HW
HStem: -38 86<90 630>
LayerCount: 2
Fore
SplineSet
85 582 m 1
 146 642 l 1
 360 428 l 1
 574 642 l 1
 635 582 l 1
 420 368 l 1
 635 153 l 1
 574 93 l 1
 360 307 l 1
 146 93 l 1
 85 153 l 1
 300 368 l 1
 85 582 l 1
630 48 m 1
 630 -38 l 1
 90 -38 l 1
 90 48 l 1
 630 48 l 1
EndSplineSet
EndChar

StartChar: uni22C7
Encoding: 31 8903 31
Width: 720
Flags: HW
HStem: 35 141<325.132 394.868> 257 86<90 256 464 630> 424 142<325.132 394.868>
VStem: 290 141<70.1323 139.868 460.132 529.868>
LayerCount: 2
Fore
SplineSet
85 514 m 1
 146 575 l 1
 360 361 l 1
 574 575 l 1
 635 514 l 1
 464 343 l 1
 630 343 l 1
 630 257 l 1
 464 257 l 1
 635 86 l 1
 574 25 l 1
 360 239 l 1
 146 25 l 1
 85 86 l 1
 256 257 l 1
 90 257 l 1
 90 343 l 1
 256 343 l 1
 85 514 l 1
431 495 m 0
 431 481 415 465 402 453 c 0
 390 440 374 424 360 424 c 0
 346 424 330 440 318 453 c 0
 305 465 290 481 290 495 c 0
 290 509 305 525 318 537 c 0
 330 550 346 566 360 566 c 0
 374 566 390 550 402 537 c 0
 415 525 431 509 431 495 c 0
431 105 m 0
 431 91 415 75 402 63 c 0
 390 50 374 35 360 35 c 0
 346 35 330 50 318 63 c 0
 305 75 290 91 290 105 c 0
 290 119 305 135 318 147 c 0
 330 160 346 176 360 176 c 0
 374 176 390 160 402 147 c 0
 415 135 431 119 431 105 c 0
EndSplineSet
EndChar

StartChar: logicalnot
Encoding: 32 172 32
Width: 720
Flags: HW
HStem: 257 86<90 544>
VStem: 544 86<62 257>
LayerCount: 2
Fore
SplineSet
90 257 m 1
 90 343 l 1
 630 343 l 1
 630 62 l 1
 544 62 l 1
 544 257 l 1
 90 257 l 1
EndSplineSet
EndChar

StartChar: revlogicalnot
Encoding: 33 8976 33
Width: 720
Flags: HW
HStem: 257 86<176 630>
VStem: 90 86<62 257>
LayerCount: 2
Fore
SplineSet
176 257 m 1
 176 62 l 1
 90 62 l 1
 90 343 l 1
 630 343 l 1
 630 257 l 1
 176 257 l 1
EndSplineSet
EndChar

StartChar: uni2A3C
Encoding: 34 10812 34
Width: 720
Flags: HW
HStem: 257 86<90 544>
VStem: 544 86<343 538>
LayerCount: 2
Fore
SplineSet
90 257 m 1
 90 343 l 1
 544 343 l 1
 544 538 l 1
 630 538 l 1
 630 257 l 1
 90 257 l 1
EndSplineSet
EndChar

StartChar: uni2A3D
Encoding: 35 10813 35
Width: 720
Flags: HW
HStem: 257 86<176 630>
VStem: 90 86<343 538>
LayerCount: 2
Fore
SplineSet
630 257 m 1
 90 257 l 1
 90 538 l 1
 176 538 l 1
 176 343 l 1
 630 343 l 1
 630 257 l 1
EndSplineSet
EndChar

StartChar: uni22CB
Encoding: 36 8907 36
Width: 720
Flags: HW
LayerCount: 2
Fore
SplineSet
635 86 m 1
 574 25 l 1
 360 239 l 1
 146 25 l 1
 85 86 l 1
 299 300 l 1
 85 514 l 1
 146 575 l 1
 635 86 l 1
EndSplineSet
EndChar

StartChar: uni22CC
Encoding: 37 8908 37
Width: 720
Flags: HW
LayerCount: 2
Fore
SplineSet
574 575 m 1
 635 514 l 1
 421 300 l 1
 635 86 l 1
 574 25 l 1
 360 239 l 1
 146 25 l 1
 85 86 l 1
 574 575 l 1
EndSplineSet
EndChar

StartChar: uni2A32
Encoding: 38 10802 38
Width: 720
Flags: HW
HStem: 30 86<236 484>
LayerCount: 2
Fore
SplineSet
604 116 m 1
 581 30 l 1
 139 30 l 1
 116 116 l 1
 300 300 l 1
 85 514 l 1
 146 575 l 1
 360 361 l 1
 574 575 l 1
 635 514 l 1
 420 300 l 1
 604 116 l 1
484 116 m 1
 360 240 l 1
 236 116 l 1
 484 116 l 1
EndSplineSet
EndChar

StartChar: uni22CA
Encoding: 39 8906 39
Width: 720
Flags: HW
VStem: 544 86<176 424>
LayerCount: 2
Fore
SplineSet
544 544 m 1
 630 521 l 1
 630 79 l 1
 544 56 l 1
 360 240 l 1
 146 25 l 1
 85 86 l 1
 299 300 l 1
 85 514 l 1
 146 575 l 1
 360 360 l 1
 544 544 l 1
544 424 m 1
 420 300 l 1
 544 176 l 1
 544 424 l 1
EndSplineSet
EndChar

StartChar: sym005
Encoding: 40 -1 40
Width: 720
Flags: HW
HStem: 484 86<236 484>
LayerCount: 2
Fore
SplineSet
116 484 m 1
 139 570 l 1
 581 570 l 1
 604 484 l 1
 420 300 l 1
 635 86 l 1
 574 25 l 1
 360 239 l 1
 146 25 l 1
 85 86 l 1
 300 300 l 1
 116 484 l 1
236 484 m 1
 360 360 l 1
 484 484 l 1
 236 484 l 1
EndSplineSet
EndChar

StartChar: uni22C9
Encoding: 41 8905 41
Width: 720
Flags: HW
VStem: 90 86<176 424>
LayerCount: 2
Fore
SplineSet
176 56 m 1
 90 79 l 1
 90 521 l 1
 176 544 l 1
 360 360 l 1
 574 575 l 1
 635 514 l 1
 421 300 l 1
 635 86 l 1
 574 25 l 1
 360 240 l 1
 176 56 l 1
176 176 m 1
 300 300 l 1
 176 424 l 1
 176 176 l 1
EndSplineSet
EndChar

StartChar: uni22C8
Encoding: 42 8904 42
Width: 720
Flags: HW
VStem: 90 86<176 424> 544 86<176 424>
LayerCount: 2
Fore
SplineSet
176 56 m 1
 90 79 l 1
 90 521 l 1
 176 544 l 1
 360 360 l 1
 544 544 l 1
 630 521 l 1
 630 79 l 1
 544 56 l 1
 360 240 l 1
 176 56 l 1
544 424 m 1
 420 300 l 1
 544 176 l 1
 544 424 l 1
176 176 m 1
 300 300 l 1
 176 424 l 1
 176 176 l 1
EndSplineSet
EndChar

StartChar: uni29D6
Encoding: 43 10710 43
Width: 720
Flags: HW
HStem: 30 86<236 484> 484 86<236 484>
LayerCount: 2
Fore
SplineSet
604 116 m 1
 581 30 l 1
 139 30 l 1
 116 116 l 1
 300 300 l 1
 116 484 l 1
 139 570 l 1
 581 570 l 1
 604 484 l 1
 420 300 l 1
 604 116 l 1
236 484 m 1
 360 360 l 1
 484 484 l 1
 236 484 l 1
484 116 m 1
 360 240 l 1
 236 116 l 1
 484 116 l 1
EndSplineSet
EndChar

StartChar: sym006
Encoding: 44 -1 44
Width: 720
Flags: HW
HStem: 257 86<342 630> 527 20G<118 158>
LayerCount: 2
Fore
SplineSet
138 547 m 1
 342 343 l 1
 630 343 l 1
 630 257 l 1
 342 257 l 1
 138 53 l 1
 77 114 l 1
 263 300 l 1
 77 486 l 1
 138 547 l 1
EndSplineSet
EndChar

StartChar: sym007
Encoding: 45 -1 45
Width: 720
Flags: HW
VStem: 317 86<282 570>
LayerCount: 2
Fore
SplineSet
113 78 m 1
 317 282 l 1
 317 570 l 1
 403 570 l 1
 403 282 l 1
 607 78 l 1
 546 17 l 1
 360 203 l 1
 174 17 l 1
 113 78 l 1
EndSplineSet
EndChar

StartChar: sym008
Encoding: 46 -1 46
Width: 720
Flags: HW
HStem: 257 86<90 378> 527 20G<562 602>
LayerCount: 2
Fore
SplineSet
582 53 m 1
 378 257 l 1
 90 257 l 1
 90 343 l 1
 378 343 l 1
 582 547 l 1
 643 486 l 1
 457 300 l 1
 643 114 l 1
 582 53 l 1
EndSplineSet
EndChar

StartChar: sym009
Encoding: 47 -1 47
Width: 720
Flags: HW
VStem: 317 86<30 318>
LayerCount: 2
Fore
SplineSet
607 522 m 1
 403 318 l 1
 403 30 l 1
 317 30 l 1
 317 318 l 1
 113 522 l 1
 174 583 l 1
 360 397 l 1
 546 583 l 1
 607 522 l 1
EndSplineSet
EndChar

StartChar: logicaland
Encoding: 48 8743 48
Width: 720
Flags: HW
LayerCount: 2
Fore
SplineSet
618 66 m 1
 540 30 l 1
 360 423 l 1
 180 30 l 1
 102 66 l 1
 332 570 l 1
 388 570 l 1
 618 66 l 1
EndSplineSet
EndChar

StartChar: logicalor
Encoding: 49 8744 49
Width: 720
Flags: HW
LayerCount: 2
Fore
SplineSet
102 534 m 1
 180 570 l 1
 360 177 l 1
 540 570 l 1
 618 534 l 1
 388 30 l 1
 332 30 l 1
 102 534 l 1
EndSplineSet
EndChar

StartChar: uni27D1
Encoding: 50 10193 50
Width: 720
Flags: HW
HStem: 49 141<325.132 394.868>
VStem: 290 141<85.1323 154.868>
LayerCount: 2
Fore
SplineSet
618 66 m 1
 540 30 l 1
 360 423 l 1
 180 30 l 1
 102 66 l 1
 332 570 l 1
 388 570 l 1
 618 66 l 1
431 120 m 0
 431 106 415 90 402 78 c 0
 390 65 374 49 360 49 c 0
 346 49 330 65 318 78 c 0
 305 90 290 106 290 120 c 0
 290 134 305 150 318 162 c 0
 330 175 346 190 360 190 c 0
 374 190 390 175 402 162 c 0
 415 150 431 134 431 120 c 0
EndSplineSet
EndChar

StartChar: uni27C7
Encoding: 51 10183 51
Width: 720
Flags: HW
HStem: 410 141<325.132 394.868>
VStem: 290 141<445.132 514.868>
LayerCount: 2
Fore
SplineSet
102 534 m 1
 180 570 l 1
 360 177 l 1
 540 570 l 1
 618 534 l 1
 388 30 l 1
 332 30 l 1
 102 534 l 1
431 480 m 0
 431 466 415 450 402 438 c 0
 390 425 374 410 360 410 c 0
 346 410 330 425 318 438 c 0
 305 450 290 466 290 480 c 0
 290 494 305 510 318 522 c 0
 330 535 346 551 360 551 c 0
 374 551 390 535 402 522 c 0
 415 510 431 494 431 480 c 0
EndSplineSet
EndChar

StartChar: uni2A55
Encoding: 52 10837 52
Width: 960
Flags: HW
LayerCount: 2
Fore
SplineSet
858 66 m 1
 780 30 l 1
 600 423 l 1
 527 265 l 1
 618 66 l 1
 540 30 l 1
 480 161 l 1
 420 30 l 1
 342 66 l 1
 433 265 l 1
 360 423 l 1
 180 30 l 1
 102 66 l 1
 332 570 l 1
 388 570 l 1
 480 368 l 1
 572 570 l 1
 628 570 l 1
 858 66 l 1
EndSplineSet
EndChar

StartChar: uni2A56
Encoding: 53 10838 53
Width: 960
Flags: HW
LayerCount: 2
Fore
SplineSet
342 534 m 1
 420 570 l 1
 480 439 l 1
 540 570 l 1
 618 534 l 1
 527 335 l 1
 600 177 l 1
 780 570 l 1
 858 534 l 1
 628 30 l 1
 572 30 l 1
 480 232 l 1
 388 30 l 1
 332 30 l 1
 102 534 l 1
 180 570 l 1
 360 177 l 1
 433 335 l 1
 342 534 l 1
EndSplineSet
EndChar

StartChar: uni22CF
Encoding: 54 8911 54
Width: 720
Flags: HW
VStem: 317 86<389.707 570>
LayerCount: 2
Fore
SplineSet
360 310 m 1
 318 205 247 109 162 30 c 1
 104 93 l 1
 227 208 317 359 317 527 c 2
 317 570 l 1
 403 570 l 1
 403 527 l 2
 403 359 493 208 616 93 c 1
 558 30 l 1
 473 109 402 205 360 310 c 1
EndSplineSet
EndChar

StartChar: uni22CE
Encoding: 55 8910 55
Width: 720
Flags: HW
VStem: 317 86<30 210.293>
LayerCount: 2
Fore
SplineSet
360 290 m 1
 402 395 473 491 558 570 c 1
 616 507 l 1
 493 392 403 241 403 73 c 2
 403 30 l 1
 317 30 l 1
 317 73 l 2
 317 241 227 392 104 507 c 1
 162 570 l 1
 247 491 318 395 360 290 c 1
EndSplineSet
EndChar

StartChar: uni22BC
Encoding: 56 8892 56
Width: 720
Flags: HW
HStem: 552 86<90 630>
LayerCount: 2
Fore
SplineSet
618 -2 m 1
 540 -38 l 1
 360 356 l 1
 180 -38 l 1
 102 -2 l 1
 332 503 l 1
 388 503 l 1
 618 -2 l 1
90 552 m 1
 90 638 l 1
 630 638 l 1
 630 552 l 1
 90 552 l 1
EndSplineSet
EndChar

StartChar: uni22BB
Encoding: 57 8891 57
Width: 720
Flags: HW
HStem: -38 86<90 630>
LayerCount: 2
Fore
SplineSet
102 602 m 1
 180 638 l 1
 360 244 l 1
 540 638 l 1
 618 602 l 1
 388 97 l 1
 332 97 l 1
 102 602 l 1
90 -38 m 1
 90 48 l 1
 630 48 l 1
 630 -38 l 1
 90 -38 l 1
EndSplineSet
EndChar

StartChar: uni2A5E
Encoding: 58 10846 58
Width: 720
Flags: HW
HStem: 484 86<90 630> 619 86<90 630>
LayerCount: 2
Fore
SplineSet
618 -69 m 1
 540 -105 l 1
 360 288 l 1
 180 -105 l 1
 102 -69 l 1
 332 435 l 1
 388 435 l 1
 618 -69 l 1
90 484 m 1
 90 570 l 1
 630 570 l 1
 630 484 l 1
 90 484 l 1
90 619 m 1
 90 705 l 1
 630 705 l 1
 630 619 l 1
 90 619 l 1
EndSplineSet
EndChar

StartChar: uni2A63
Encoding: 59 10851 59
Width: 720
Flags: HW
HStem: -105 86<90 630> 30 86<90 630>
LayerCount: 2
Fore
SplineSet
102 669 m 1
 180 705 l 1
 360 312 l 1
 540 705 l 1
 618 669 l 1
 388 165 l 1
 332 165 l 1
 102 669 l 1
90 30 m 1
 90 116 l 1
 630 116 l 1
 630 30 l 1
 90 30 l 1
90 -105 m 1
 90 -19 l 1
 630 -19 l 1
 630 -105 l 1
 90 -105 l 1
EndSplineSet
EndChar

StartChar: union
Encoding: 60 8746 60
Width: 720
Flags: HW
HStem: 30 86<263.843 456.157>
VStem: 90 86<193.293 570> 544 86<193.293 570>
LayerCount: 2
Fore
SplineSet
176 570 m 1
 176 259 l 2
 176 171 265 116 360 116 c 0
 455 116 544 171 544 259 c 2
 544 570 l 1
 630 570 l 1
 630 259 l 2
 630 124 502 30 360 30 c 0
 218 30 90 124 90 259 c 2
 90 570 l 1
 176 570 l 1
EndSplineSet
EndChar

StartChar: intersection
Encoding: 61 8745 61
Width: 720
Flags: HW
HStem: 484 86<263.843 456.157>
VStem: 90 86<30 406.707> 544 86<30 406.707>
LayerCount: 2
Fore
SplineSet
544 30 m 1
 544 341 l 2
 544 429 455 484 360 484 c 0
 265 484 176 429 176 341 c 2
 176 30 l 1
 90 30 l 1
 90 341 l 2
 90 476 218 570 360 570 c 0
 502 570 630 476 630 341 c 2
 630 30 l 1
 544 30 l 1
EndSplineSet
EndChar

StartChar: uni22D3
Encoding: 62 8915 62
Width: 900
Flags: HW
HStem: -60 86<336.395 563.605> 150 86<383.043 516.957>
VStem: 90 86<162.315 660> 275 86<258.034 660> 539 86<258.034 660> 724 86<162.315 660>
LayerCount: 2
Fore
SplineSet
361 660 m 1
 361 301 l 2
 361 260 405 236 450 236 c 0
 495 236 539 260 539 301 c 2
 539 660 l 1
 625 660 l 1
 625 301 l 2
 625 213 543 150 450 150 c 0
 357 150 275 213 275 301 c 2
 275 660 l 1
 361 660 l 1
176 660 m 1
 176 248 l 2
 176 115 307 26 450 26 c 0
 593 26 724 115 724 248 c 2
 724 660 l 1
 810 660 l 1
 810 248 l 2
 810 68 640 -60 450 -60 c 0
 260 -60 90 68 90 248 c 2
 90 660 l 1
 176 660 l 1
EndSplineSet
EndChar

StartChar: uni22D2
Encoding: 63 8914 63
Width: 900
Flags: HW
HStem: 364 86<383.043 516.957> 574 86<336.395 563.605>
VStem: 90 86<-60 437.685> 275 86<-60 341.966> 539 86<-60 341.966> 724 86<-60 437.685>
LayerCount: 2
Fore
SplineSet
539 -60 m 1
 539 299 l 2
 539 340 495 364 450 364 c 0
 405 364 361 340 361 299 c 2
 361 -60 l 1
 275 -60 l 1
 275 299 l 2
 275 387 357 450 450 450 c 0
 543 450 625 387 625 299 c 2
 625 -60 l 1
 539 -60 l 1
724 -60 m 1
 724 352 l 2
 724 485 593 574 450 574 c 0
 307 574 176 485 176 352 c 2
 176 -60 l 1
 90 -60 l 1
 90 352 l 2
 90 532 260 660 450 660 c 0
 640 660 810 532 810 352 c 2
 810 -60 l 1
 724 -60 l 1
EndSplineSet
EndChar

StartChar: uni228D
Encoding: 64 8845 64
Width: 720
Flags: HW
HStem: 30 86<263.843 456.157> 320 141<325.132 394.868>
VStem: 90 86<193.293 570> 290 141<355.132 424.868> 544 86<193.293 570>
LayerCount: 2
Fore
SplineSet
176 570 m 1
 176 259 l 2
 176 171 265 116 360 116 c 0
 455 116 544 171 544 259 c 2
 544 570 l 1
 630 570 l 1
 630 259 l 2
 630 124 502 30 360 30 c 0
 218 30 90 124 90 259 c 2
 90 570 l 1
 176 570 l 1
431 390 m 0
 431 376 415 360 402 348 c 0
 390 335 374 320 360 320 c 0
 346 320 330 335 318 348 c 0
 305 360 290 376 290 390 c 0
 290 404 305 420 318 432 c 0
 330 445 346 461 360 461 c 0
 374 461 390 445 402 432 c 0
 415 420 431 404 431 390 c 0
EndSplineSet
EndChar

StartChar: uni2A40
Encoding: 65 10816 65
Width: 720
Flags: HW
HStem: 139 141<325.132 394.868> 484 86<263.843 456.157>
VStem: 90 86<30 406.707> 290 141<175.132 244.868> 544 86<30 406.707>
LayerCount: 2
Fore
SplineSet
544 30 m 1
 544 341 l 2
 544 429 455 484 360 484 c 0
 265 484 176 429 176 341 c 2
 176 30 l 1
 90 30 l 1
 90 341 l 2
 90 476 218 570 360 570 c 0
 502 570 630 476 630 341 c 2
 630 30 l 1
 544 30 l 1
431 210 m 0
 431 196 415 180 402 168 c 0
 390 155 374 139 360 139 c 0
 346 139 330 155 318 168 c 0
 305 180 290 196 290 210 c 0
 290 224 305 240 318 252 c 0
 330 265 346 280 360 280 c 0
 374 280 390 265 402 252 c 0
 415 240 431 224 431 210 c 0
EndSplineSet
EndChar

StartChar: uni228E
Encoding: 66 8846 66
Width: 720
Flags: HW
HStem: 30 86<263.843 456.157> 347 86<227 317 403 493>
VStem: 90 86<193.293 570> 317 86<257 347 433 523> 544 86<193.293 570>
CounterMasks: 1 38
LayerCount: 2
Fore
SplineSet
176 570 m 1
 176 259 l 2
 176 171 265 116 360 116 c 0
 455 116 544 171 544 259 c 2
 544 570 l 1
 630 570 l 1
 630 259 l 2
 630 124 502 30 360 30 c 0
 218 30 90 124 90 259 c 2
 90 570 l 1
 176 570 l 1
317 523 m 1
 403 523 l 1
 403 433 l 1
 493 433 l 1
 493 347 l 1
 403 347 l 1
 403 257 l 1
 317 257 l 1
 317 347 l 1
 227 347 l 1
 227 433 l 1
 317 433 l 1
 317 523 l 1
EndSplineSet
EndChar

StartChar: sym00A
Encoding: 67 -1 67
Width: 720
Flags: HW
HStem: 167 86<227 317 403 493> 484 86<263.843 456.157>
VStem: 90 86<30 406.707> 317 86<77 167 253 343> 544 86<30 406.707>
CounterMasks: 1 38
LayerCount: 2
Fore
SplineSet
544 30 m 1
 544 341 l 2
 544 429 455 484 360 484 c 0
 265 484 176 429 176 341 c 2
 176 30 l 1
 90 30 l 1
 90 341 l 2
 90 476 218 570 360 570 c 0
 502 570 630 476 630 341 c 2
 630 30 l 1
 544 30 l 1
317 343 m 1
 403 343 l 1
 403 253 l 1
 493 253 l 1
 493 167 l 1
 403 167 l 1
 403 77 l 1
 317 77 l 1
 317 167 l 1
 227 167 l 1
 227 253 l 1
 317 253 l 1
 317 343 l 1
EndSplineSet
EndChar

StartChar: uni2294
Encoding: 68 8852 68
Width: 720
Flags: HW
HStem: 30 86<176 544>
VStem: 90 86<116 570> 544 86<116 570>
LayerCount: 2
Fore
SplineSet
90 570 m 1
 176 570 l 1
 176 116 l 1
 544 116 l 1
 544 570 l 1
 630 570 l 1
 630 30 l 1
 90 30 l 1
 90 570 l 1
EndSplineSet
EndChar

StartChar: uni2293
Encoding: 69 8851 69
Width: 720
Flags: HW
HStem: 484 86<176 544>
VStem: 90 86<30 484> 544 86<30 484>
LayerCount: 2
Fore
SplineSet
176 30 m 1
 90 30 l 1
 90 570 l 1
 630 570 l 1
 630 30 l 1
 544 30 l 1
 544 484 l 1
 176 484 l 1
 176 30 l 1
EndSplineSet
EndChar

StartChar: uni2A4F
Encoding: 70 10831 70
Width: 900
Flags: HW
HStem: -60 86<176 724> 125 86<343 557>
VStem: 90 86<26 660> 257 86<211 660> 557 86<211 660> 724 86<26 660>
LayerCount: 2
Fore
SplineSet
90 660 m 1
 176 660 l 1
 176 26 l 1
 724 26 l 1
 724 660 l 1
 810 660 l 1
 810 -60 l 1
 90 -60 l 1
 90 660 l 1
257 660 m 1
 343 660 l 1
 343 211 l 1
 557 211 l 1
 557 660 l 1
 643 660 l 1
 643 125 l 1
 257 125 l 1
 257 660 l 1
EndSplineSet
EndChar

StartChar: uni2A4E
Encoding: 71 10830 71
Width: 900
Flags: HW
HStem: 389 86<343 557> 574 86<176 724>
VStem: 90 86<-60 574> 257 86<-60 389> 557 86<-60 389> 724 86<-60 574>
LayerCount: 2
Fore
SplineSet
176 -60 m 1
 90 -60 l 1
 90 660 l 1
 810 660 l 1
 810 -60 l 1
 724 -60 l 1
 724 574 l 1
 176 574 l 1
 176 -60 l 1
343 -60 m 1
 257 -60 l 1
 257 475 l 1
 643 475 l 1
 643 -60 l 1
 557 -60 l 1
 557 389 l 1
 343 389 l 1
 343 -60 l 1
EndSplineSet
EndChar

StartChar: sym00B
Encoding: 72 -1 72
Width: 720
Flags: HW
HStem: 30 86<176 544> 320 141<325.132 394.868>
VStem: 90 86<116 570> 290 141<355.132 424.868> 544 86<116 570>
LayerCount: 2
Fore
SplineSet
90 570 m 1
 176 570 l 1
 176 116 l 1
 544 116 l 1
 544 570 l 1
 630 570 l 1
 630 30 l 1
 90 30 l 1
 90 570 l 1
431 390 m 0
 431 376 415 360 402 348 c 0
 390 335 374 320 360 320 c 0
 346 320 330 335 318 348 c 0
 305 360 290 376 290 390 c 0
 290 404 305 420 318 432 c 0
 330 445 346 461 360 461 c 0
 374 461 390 445 402 432 c 0
 415 420 431 404 431 390 c 0
EndSplineSet
EndChar

StartChar: sym00C
Encoding: 73 -1 73
Width: 720
Flags: HW
HStem: 139 141<325.132 394.868> 484 86<176 544>
VStem: 90 86<30 484> 290 141<175.132 244.868> 544 86<30 484>
LayerCount: 2
Fore
SplineSet
176 30 m 1
 90 30 l 1
 90 570 l 1
 630 570 l 1
 630 30 l 1
 544 30 l 1
 544 484 l 1
 176 484 l 1
 176 30 l 1
431 210 m 0
 431 196 415 180 402 168 c 0
 390 155 374 139 360 139 c 0
 346 139 330 155 318 168 c 0
 305 180 290 196 290 210 c 0
 290 224 305 240 318 252 c 0
 330 265 346 280 360 280 c 0
 374 280 390 265 402 252 c 0
 415 240 431 224 431 210 c 0
EndSplineSet
EndChar

StartChar: sym00D
Encoding: 74 -1 74
Width: 720
Flags: HW
HStem: 30 86<176 544> 347 86<227 317 403 493>
VStem: 90 86<116 570> 317 86<257 347 433 523> 544 86<116 570>
CounterMasks: 1 38
LayerCount: 2
Fore
SplineSet
90 570 m 1
 176 570 l 1
 176 116 l 1
 544 116 l 1
 544 570 l 1
 630 570 l 1
 630 30 l 1
 90 30 l 1
 90 570 l 1
317 523 m 1
 403 523 l 1
 403 433 l 1
 493 433 l 1
 493 347 l 1
 403 347 l 1
 403 257 l 1
 317 257 l 1
 317 347 l 1
 227 347 l 1
 227 433 l 1
 317 433 l 1
 317 523 l 1
EndSplineSet
EndChar

StartChar: sym00E
Encoding: 75 -1 75
Width: 720
Flags: HW
HStem: 167 86<227 317 403 493> 484 86<176 544>
VStem: 90 86<30 484> 317 86<77 167 253 343> 544 86<30 484>
CounterMasks: 1 38
LayerCount: 2
Fore
SplineSet
176 30 m 1
 90 30 l 1
 90 570 l 1
 630 570 l 1
 630 30 l 1
 544 30 l 1
 544 484 l 1
 176 484 l 1
 176 30 l 1
317 343 m 1
 403 343 l 1
 403 253 l 1
 493 253 l 1
 493 167 l 1
 403 167 l 1
 403 77 l 1
 317 77 l 1
 317 167 l 1
 227 167 l 1
 227 253 l 1
 317 253 l 1
 317 343 l 1
EndSplineSet
EndChar

StartChar: uni27D3
Encoding: 76 10195 76
Width: 720
Flags: HW
HStem: 30 86<90 544> 229 142<325.132 394.868>
VStem: 290 141<265.132 334.868> 544 86<116 570>
LayerCount: 2
Fore
SplineSet
90 30 m 1
 90 116 l 1
 544 116 l 1
 544 570 l 1
 630 570 l 1
 630 30 l 1
 90 30 l 1
431 300 m 0
 431 286 415 270 402 258 c 0
 390 245 374 229 360 229 c 0
 346 229 330 245 318 258 c 0
 305 270 290 286 290 300 c 0
 290 314 305 330 318 342 c 0
 330 355 346 371 360 371 c 0
 374 371 390 355 402 342 c 0
 415 330 431 314 431 300 c 0
EndSplineSet
EndChar

StartChar: uni27D4
Encoding: 77 10196 77
Width: 720
Flags: HW
HStem: 229 142<325.132 394.868> 484 86<176 630>
VStem: 90 86<30 484> 290 141<265.132 334.868>
LayerCount: 2
Fore
SplineSet
630 570 m 1
 630 484 l 1
 176 484 l 1
 176 30 l 1
 90 30 l 1
 90 570 l 1
 630 570 l 1
431 300 m 0
 431 286 415 270 402 258 c 0
 390 245 374 229 360 229 c 0
 346 229 330 245 318 258 c 0
 305 270 290 286 290 300 c 0
 290 314 305 330 318 342 c 0
 330 355 346 371 360 371 c 0
 374 371 390 355 402 342 c 0
 415 330 431 314 431 300 c 0
EndSplineSet
EndChar

StartChar: uni25B9
Encoding: 78 9657 78
Width: 669
Flags: HW
VStem: 90 86<167 433>
LayerCount: 2
Fore
SplineSet
579 300 m 1
 90 18 l 1
 90 582 l 1
 579 300 l 1
407 300 m 1
 176 433 l 1
 176 167 l 1
 407 300 l 1
EndSplineSet
EndChar

StartChar: uni25B5
Encoding: 79 9653 79
Width: 745
Flags: HW
HStem: 55 86<239 506> 525 20G<360.49 383.551>
LayerCount: 2
Fore
SplineSet
372 545 m 1
 655 55 l 1
 90 55 l 1
 372 545 l 1
372 373 m 1
 239 141 l 1
 506 141 l 1
 372 373 l 1
EndSplineSet
EndChar

StartChar: uni25C3
Encoding: 80 9667 80
Width: 669
Flags: HW
VStem: 493 86<167 433>
LayerCount: 2
Fore
SplineSet
90 300 m 1
 579 582 l 1
 579 18 l 1
 90 300 l 1
262 300 m 1
 493 167 l 1
 493 433 l 1
 262 300 l 1
EndSplineSet
EndChar

StartChar: uni25BF
Encoding: 81 9663 81
Width: 745
Flags: HW
HStem: 459 86<239 506>
LayerCount: 2
Fore
SplineSet
372 55 m 1
 90 545 l 1
 655 545 l 1
 372 55 l 1
372 227 m 1
 506 459 l 1
 239 459 l 1
 372 227 l 1
EndSplineSet
EndChar

StartChar: uni25B8
Encoding: 82 9656 82
Width: 669
Flags: HW
LayerCount: 2
Fore
SplineSet
579 300 m 1
 90 18 l 1
 90 582 l 1
 579 300 l 1
EndSplineSet
EndChar

StartChar: uni25B4
Encoding: 83 9652 83
Width: 745
Flags: HW
HStem: 525 20G<360.49 383.551>
LayerCount: 2
Fore
SplineSet
372 545 m 1
 655 55 l 1
 90 55 l 1
 372 545 l 1
EndSplineSet
EndChar

StartChar: uni25C2
Encoding: 84 9666 84
Width: 669
Flags: HW
LayerCount: 2
Fore
SplineSet
90 300 m 1
 579 582 l 1
 579 18 l 1
 90 300 l 1
EndSplineSet
EndChar

StartChar: uni25BE
Encoding: 85 9662 85
Width: 745
Flags: HW
HStem: 525 20G<90 655>
LayerCount: 2
Fore
SplineSet
372 55 m 1
 90 545 l 1
 655 545 l 1
 372 55 l 1
EndSplineSet
EndChar

StartChar: uni25B7
Encoding: 86 9655 86
Width: 872
Flags: HW
VStem: 90 86<50 550>
LayerCount: 2
Fore
SplineSet
782 300 m 1
 90 -99 l 1
 90 699 l 1
 782 300 l 1
610 300 m 1
 176 550 l 1
 176 50 l 1
 610 300 l 1
EndSplineSet
EndChar

StartChar: uni25B3
Encoding: 87 9651 87
Width: 978
Flags: HW
HStem: -46 86<239 740>
LayerCount: 2
Fore
SplineSet
489 646 m 1
 888 -46 l 1
 90 -46 l 1
 489 646 l 1
489 474 m 1
 239 40 l 1
 740 40 l 1
 489 474 l 1
EndSplineSet
EndChar

StartChar: uni25C1
Encoding: 88 9665 88
Width: 872
Flags: HW
VStem: 696 86<50 550>
LayerCount: 2
Fore
SplineSet
90 300 m 1
 782 699 l 1
 782 -99 l 1
 90 300 l 1
262 300 m 1
 696 50 l 1
 696 550 l 1
 262 300 l 1
EndSplineSet
EndChar

StartChar: uni25BD
Encoding: 89 9661 89
Width: 978
Flags: HW
HStem: 560 86<239 740>
LayerCount: 2
Fore
SplineSet
489 -46 m 1
 90 646 l 1
 888 646 l 1
 489 -46 l 1
489 126 m 1
 740 560 l 1
 239 560 l 1
 489 126 l 1
EndSplineSet
EndChar

StartChar: uni25B6
Encoding: 90 9654 90
Width: 872
Flags: HW
LayerCount: 2
Fore
SplineSet
782 300 m 1
 90 -99 l 1
 90 699 l 1
 782 300 l 1
EndSplineSet
EndChar

StartChar: uni25B2
Encoding: 91 9650 91
Width: 978
Flags: HW
LayerCount: 2
Fore
SplineSet
489 646 m 1
 888 -46 l 1
 90 -46 l 1
 489 646 l 1
EndSplineSet
EndChar

StartChar: uni25C0
Encoding: 92 9664 92
Width: 872
Flags: HW
LayerCount: 2
Fore
SplineSet
90 300 m 1
 782 699 l 1
 782 -99 l 1
 90 300 l 1
EndSplineSet
EndChar

StartChar: uni25BC
Encoding: 93 9660 93
Width: 978
Flags: HW
LayerCount: 2
Fore
SplineSet
489 -46 m 1
 90 646 l 1
 888 646 l 1
 489 -46 l 1
EndSplineSet
EndChar

StartChar: sym00F
Encoding: 94 -1 94
Width: 1264
Flags: HW
HStem: -170 86<239 1025>
LayerCount: 2
Fore
SplineSet
632 770 m 1
 1174 -170 l 1
 90 -170 l 1
 632 770 l 1
632 598 m 1
 239 -84 l 1
 1025 -84 l 1
 632 598 l 1
EndSplineSet
EndChar

StartChar: sym010
Encoding: 95 -1 95
Width: 1264
Flags: HW
HStem: 684 86<239 1025>
LayerCount: 2
Fore
SplineSet
632 -170 m 1
 90 770 l 1
 1174 770 l 1
 632 -170 l 1
632 2 m 1
 1025 684 l 1
 239 684 l 1
 632 2 l 1
EndSplineSet
EndChar

StartChar: openbullet
Encoding: 96 9702 96
Width: 564
Flags: HW
HStem: 108 86<219.215 344.785> 406 86<219.215 344.785>
VStem: 90 86<237.215 362.785> 388 86<237.215 362.785>
LayerCount: 2
Fore
SplineSet
282 492 m 0
 389 492 474 407 474 300 c 0
 474 193 389 108 282 108 c 0
 175 108 90 193 90 300 c 0
 90 407 175 492 282 492 c 0
282 194 m 0
 341 194 388 241 388 300 c 0
 388 359 341 406 282 406 c 0
 223 406 176 359 176 300 c 0
 176 241 223 194 282 194 c 0
EndSplineSet
EndChar

StartChar: bullet
Encoding: 97 8226 97
Width: 564
Flags: HW
HStem: 108 384<194.168 369.832>
VStem: 90 384<212.168 387.832>
LayerCount: 2
Fore
SplineSet
282 492 m 0
 389 492 474 407 474 300 c 0
 474 193 389 108 282 108 c 0
 175 108 90 193 90 300 c 0
 90 407 175 492 282 492 c 0
EndSplineSet
EndChar

StartChar: circle
Encoding: 98 9675 98
Width: 780
Flags: HW
HStem: 0 86<299.392 480.608> 514 86<299.392 480.608>
VStem: 90 86<209.392 390.608> 604 86<209.392 390.608>
LayerCount: 2
Fore
SplineSet
390 600 m 0
 555 600 690 465 690 300 c 0
 690 135 555 0 390 0 c 0
 225 0 90 135 90 300 c 0
 90 465 225 600 390 600 c 0
390 86 m 0
 507 86 604 183 604 300 c 0
 604 417 507 514 390 514 c 0
 273 514 176 417 176 300 c 0
 176 183 273 86 390 86 c 0
EndSplineSet
EndChar

StartChar: uni25CF
Encoding: 99 9679 99
Width: 780
Flags: HW
HStem: 0 600<280.28 499.72>
VStem: 90 600<190.28 409.72>
LayerCount: 2
Fore
SplineSet
390 600 m 0
 555 600 690 465 690 300 c 0
 690 135 555 0 390 0 c 0
 225 0 90 135 90 300 c 0
 90 465 225 600 390 600 c 0
EndSplineSet
EndChar

StartChar: uni2296
Encoding: 100 8854 100
Width: 780
Flags: HW
HStem: 0 86<298.534 481.466> 257 86<180 600> 514 86<298.534 481.466>
CounterMasks: 1 e0
LayerCount: 2
Fore
SplineSet
600 343 m 1
 580 441 492 514 390 514 c 0
 288 514 200 441 180 343 c 1
 600 343 l 1
180 257 m 1
 200 159 288 86 390 86 c 0
 492 86 580 159 600 257 c 1
 180 257 l 1
390 600 m 0
 555 600 690 465 690 300 c 0
 690 135 555 0 390 0 c 0
 225 0 90 135 90 300 c 0
 90 465 225 600 390 600 c 0
EndSplineSet
EndChar

StartChar: uni29B6
Encoding: 101 10678 101
Width: 780
Flags: HW
HStem: 0 21G<307.5 472.5>
VStem: 90 86<208.534 391.466> 347 86<90 510> 604 86<208.534 391.466>
CounterMasks: 1 70
LayerCount: 2
Fore
SplineSet
347 510 m 1
 249 490 176 402 176 300 c 0
 176 198 249 110 347 90 c 1
 347 510 l 1
390 600 m 0
 555 600 690 465 690 300 c 0
 690 135 555 0 390 0 c 0
 225 0 90 135 90 300 c 0
 90 465 225 600 390 600 c 0
433 90 m 1
 531 110 604 198 604 300 c 0
 604 402 531 490 433 510 c 1
 433 90 l 1
EndSplineSet
EndChar

StartChar: uni2298
Encoding: 102 8856 102
Width: 780
Flags: HW
HStem: 0 86<299.719 480.608> 514 86<299.392 480.281>
VStem: 90 86<209.719 390.608> 604 86<209.392 390.281>
LayerCount: 2
Fore
SplineSet
390 514 m 0
 273 514 176 417 176 300 c 0
 176 258 189 218 212 183 c 1
 507 478 l 1
 472 501 432 514 390 514 c 0
390 86 m 0
 507 86 604 183 604 300 c 0
 604 342 591 382 568 417 c 1
 273 122 l 1
 308 99 348 86 390 86 c 0
390 600 m 0
 555 600 690 465 690 300 c 0
 690 135 555 0 390 0 c 0
 225 0 90 135 90 300 c 0
 90 465 225 600 390 600 c 0
EndSplineSet
EndChar

StartChar: uni29B8
Encoding: 103 10680 103
Width: 780
Flags: HW
HStem: 0 86<299.392 480.281> 514 86<299.719 480.608>
VStem: 90 86<209.392 390.281> 604 86<209.719 390.608>
LayerCount: 2
Fore
SplineSet
176 300 m 0
 176 183 273 86 390 86 c 0
 432 86 472 99 507 122 c 1
 212 417 l 1
 189 382 176 342 176 300 c 0
390 600 m 0
 555 600 690 465 690 300 c 0
 690 135 555 0 390 0 c 0
 225 0 90 135 90 300 c 0
 90 465 225 600 390 600 c 0
604 300 m 0
 604 417 507 514 390 514 c 0
 348 514 308 501 273 478 c 1
 568 183 l 1
 591 218 604 258 604 300 c 0
EndSplineSet
EndChar

StartChar: circleplus
Encoding: 104 8853 104
Width: 780
Flags: HW
HStem: 0 21G<307.5 472.5> 257 86<180 347 433 600>
VStem: 347 86<90 257 343 510>
LayerCount: 2
Fore
SplineSet
347 343 m 1
 347 510 l 1
 264 493 197 426 180 343 c 1
 347 343 l 1
433 343 m 1
 600 343 l 1
 583 426 516 493 433 510 c 1
 433 343 l 1
347 257 m 1
 180 257 l 1
 197 174 264 107 347 90 c 1
 347 257 l 1
433 257 m 1
 433 90 l 1
 516 107 583 174 600 257 c 1
 433 257 l 1
390 600 m 0
 555 600 690 465 690 300 c 0
 690 135 555 0 390 0 c 0
 225 0 90 135 90 300 c 0
 90 465 225 600 390 600 c 0
EndSplineSet
EndChar

StartChar: circlemultiply
Encoding: 105 8855 105
Width: 780
Flags: HW
HStem: 0 86<299.719 480.281> 514 86<299.719 480.281>
VStem: 90 86<209.719 390.281> 604 86<209.719 390.281>
LayerCount: 2
Fore
SplineSet
390 239 m 1
 273 122 l 1
 308 99 348 86 390 86 c 0
 432 86 472 99 507 122 c 1
 390 239 l 1
451 300 m 1
 568 183 l 1
 591 218 604 258 604 300 c 0
 604 342 591 382 568 417 c 1
 451 300 l 1
329 300 m 1
 212 417 l 1
 189 382 176 342 176 300 c 0
 176 258 189 218 212 183 c 1
 329 300 l 1
390 361 m 1
 507 478 l 1
 472 501 432 514 390 514 c 0
 348 514 308 501 273 478 c 1
 390 361 l 1
390 600 m 0
 555 600 690 465 690 300 c 0
 690 135 555 0 390 0 c 0
 225 0 90 135 90 300 c 0
 90 465 225 600 390 600 c 0
EndSplineSet
EndChar

StartChar: uni2299
Encoding: 106 8857 106
Width: 780
Flags: HW
HStem: 0 86<299.392 480.608> 206 188<350.251 429.749> 514 86<299.392 480.608>
VStem: 90 86<209.392 390.608> 296 188<260.251 339.749> 604 86<209.392 390.608>
CounterMasks: 1 fc
LayerCount: 2
Fore
SplineSet
390 600 m 0
 555 600 690 465 690 300 c 0
 690 135 555 0 390 0 c 0
 225 0 90 135 90 300 c 0
 90 465 225 600 390 600 c 0
390 86 m 0
 507 86 604 183 604 300 c 0
 604 417 507 514 390 514 c 0
 273 514 176 417 176 300 c 0
 176 183 273 86 390 86 c 0
484 300 m 0
 484 281 463 260 446 244 c 0
 430 227 409 206 390 206 c 0
 371 206 350 227 334 244 c 0
 317 260 296 281 296 300 c 0
 296 319 317 340 334 356 c 0
 350 373 371 394 390 394 c 0
 409 394 430 373 446 356 c 0
 463 340 484 319 484 300 c 0
EndSplineSet
EndChar

StartChar: uni229A
Encoding: 107 8858 107
Width: 780
Flags: HW
HStem: 0 86<299.392 480.608> 154 86<345.527 434.718> 360 86<345.527 434.718> 514 86<299.392 480.608>
VStem: 90 86<209.392 390.608> 244 86<255.601 344.399> 450 86<255.282 344.718> 604 86<209.392 390.608>
LayerCount: 2
Fore
SplineSet
390 600 m 0
 555 600 690 465 690 300 c 0
 690 135 555 0 390 0 c 0
 225 0 90 135 90 300 c 0
 90 465 225 600 390 600 c 0
390 86 m 0
 507 86 604 183 604 300 c 0
 604 417 507 514 390 514 c 0
 273 514 176 417 176 300 c 0
 176 183 273 86 390 86 c 0
390 446 m 0
 470 446 536 380 536 300 c 0
 536 220 470 154 390 154 c 0
 310 154 244 220 244 300 c 0
 244 380 310 446 390 446 c 0
390 240 m 0
 423 240 450 267 450 300 c 0
 450 333 423 360 390 360 c 0
 353 360 330 328 330 300 c 0
 330 272 353 240 390 240 c 0
EndSplineSet
EndChar

StartChar: uni229B
Encoding: 108 8859 108
Width: 780
Flags: HW
HStem: 0 21G<307.5 472.5>
VStem: 90 86<244.482 355.518> 604 86<244.482 355.518>
LayerCount: 2
Fore
SplineSet
426 362 m 1
 544 448 l 1
 532 461 498 494 442 508 c 1
 426 362 l 1
354 362 m 1
 338 508 l 1
 321 504 276 490 236 448 c 1
 354 362 l 1
319 300 m 1
 184 359 l 1
 178 340 176 320 176 300 c 0
 176 280 178 260 184 241 c 1
 319 300 l 1
354 238 m 1
 236 152 l 1
 248 139 282 106 338 92 c 1
 354 238 l 1
426 238 m 1
 442 92 l 1
 459 96 504 110 544 152 c 1
 426 238 l 1
461 300 m 1
 596 241 l 1
 602 260 604 280 604 300 c 0
 604 320 602 340 596 359 c 1
 461 300 l 1
390 600 m 0
 555 600 690 465 690 300 c 0
 690 135 555 0 390 0 c 0
 225 0 90 135 90 300 c 0
 90 465 225 600 390 600 c 0
EndSplineSet
EndChar

StartChar: uni229D
Encoding: 109 8861 109
Width: 780
Flags: HW
HStem: 0 86<299.392 480.608> 257 86<219 561> 514 86<299.392 480.608>
VStem: 90 86<209.392 390.608> 604 86<209.392 390.608>
CounterMasks: 1 e0
LayerCount: 2
Fore
SplineSet
390 600 m 0
 555 600 690 465 690 300 c 0
 690 135 555 0 390 0 c 0
 225 0 90 135 90 300 c 0
 90 465 225 600 390 600 c 0
390 86 m 0
 507 86 604 183 604 300 c 0
 604 417 507 514 390 514 c 0
 273 514 176 417 176 300 c 0
 176 183 273 86 390 86 c 0
219 257 m 1
 219 343 l 1
 561 343 l 1
 561 257 l 1
 219 257 l 1
EndSplineSet
EndChar

StartChar: uni229C
Encoding: 110 8860 110
Width: 780
Flags: HW
HStem: 0 86<299.392 480.608> 179 86<219 561> 335 86<219 561> 514 86<299.392 480.608>
VStem: 90 86<209.392 390.608> 604 86<209.392 390.608>
LayerCount: 2
Fore
SplineSet
390 600 m 0
 555 600 690 465 690 300 c 0
 690 135 555 0 390 0 c 0
 225 0 90 135 90 300 c 0
 90 465 225 600 390 600 c 0
390 86 m 0
 507 86 604 183 604 300 c 0
 604 417 507 514 390 514 c 0
 273 514 176 417 176 300 c 0
 176 183 273 86 390 86 c 0
219 335 m 1
 219 421 l 1
 561 421 l 1
 561 335 l 1
 219 335 l 1
219 179 m 1
 219 265 l 1
 561 265 l 1
 561 179 l 1
 219 179 l 1
EndSplineSet
EndChar

StartChar: emptyset
Encoding: 111 8709 111
Width: 780
Flags: HW
HStem: 0 86<298.243 480.608> 514 86<299.392 481.757>
VStem: 90 86<208.243 390.608> 604 86<209.392 391.757>
LayerCount: 2
Fore
SplineSet
390 514 m 0
 273 514 176 417 176 300 c 0
 176 258 189 218 212 183 c 1
 507 478 l 1
 472 501 432 514 390 514 c 0
390 86 m 0
 507 86 604 183 604 300 c 0
 604 342 591 382 568 417 c 1
 273 122 l 1
 308 99 348 86 390 86 c 0
90 300 m 0
 90 465 225 600 390 600 c 0
 455 600 518 578 569 540 c 1
 632 603 l 1
 693 542 l 1
 630 479 l 1
 668 428 690 365 690 300 c 0
 690 135 555 0 390 0 c 0
 325 0 262 22 211 60 c 1
 148 -3 l 1
 87 58 l 1
 150 121 l 1
 112 172 90 235 90 300 c 0
EndSplineSet
EndChar

StartChar: uni29B0
Encoding: 112 10672 112
Width: 780
Flags: HW
HStem: 0 86<299.392 481.757> 514 86<298.243 480.608>
VStem: 90 86<209.392 391.757> 604 86<208.243 390.608>
LayerCount: 2
Fore
SplineSet
176 300 m 0
 176 183 273 86 390 86 c 0
 432 86 472 99 507 122 c 1
 212 417 l 1
 189 382 176 342 176 300 c 0
604 300 m 0
 604 417 507 514 390 514 c 0
 348 514 308 501 273 478 c 1
 568 183 l 1
 591 218 604 258 604 300 c 0
390 600 m 0
 555 600 690 465 690 300 c 0
 690 235 668 172 630 121 c 1
 693 58 l 1
 632 -3 l 1
 569 60 l 1
 518 22 455 0 390 0 c 0
 225 0 90 135 90 300 c 0
 90 365 112 428 150 479 c 1
 87 542 l 1
 148 603 l 1
 211 540 l 1
 262 578 325 600 390 600 c 0
EndSplineSet
EndChar

StartChar: uni25EF
Encoding: 113 9711 113
Width: 1044
Flags: HW
HStem: -132 86<403.483 640.517> 646 86<403.483 640.517>
VStem: 90 86<181.483 418.517> 868 86<181.483 418.517>
LayerCount: 2
Fore
SplineSet
522 732 m 0
 759 732 954 537 954 300 c 0
 954 63 759 -132 522 -132 c 0
 285 -132 90 63 90 300 c 0
 90 537 285 732 522 732 c 0
522 -46 m 0
 714 -46 868 108 868 300 c 0
 868 492 714 646 522 646 c 0
 330 646 176 492 176 300 c 0
 176 108 330 -46 522 -46 c 0
EndSplineSet
EndChar

StartChar: uni2B24
Encoding: 114 11044 114
Width: 1044
Flags: HW
HStem: -132 864<394.126 649.874>
VStem: 90 864<172.126 427.874>
LayerCount: 2
Fore
SplineSet
522 732 m 0
 759 732 954 537 954 300 c 0
 954 63 759 -132 522 -132 c 0
 285 -132 90 63 90 300 c 0
 90 537 285 732 522 732 c 0
EndSplineSet
EndChar

StartChar: uni25AB
Encoding: 115 9643 115
Width: 519
Flags: HW
HStem: 130 86<176 343> 384 86<176 343>
VStem: 90 86<216 384> 343 86<216 384>
LayerCount: 2
Fore
SplineSet
429 470 m 1
 429 130 l 1
 90 130 l 1
 90 470 l 1
 429 470 l 1
343 384 m 1
 176 384 l 1
 176 216 l 1
 343 216 l 1
 343 384 l 1
EndSplineSet
EndChar

StartChar: uni25AA
Encoding: 116 9642 116
Width: 519
Flags: HW
HStem: 130 340<90 429>
VStem: 90 339<130 470>
LayerCount: 2
Fore
SplineSet
429 470 m 1
 429 130 l 1
 90 130 l 1
 90 470 l 1
 429 470 l 1
EndSplineSet
EndChar

StartChar: uni25A1
Encoding: 117 9633 117
Width: 710
Flags: HW
HStem: 35 86<176 534> 479 86<176 534>
VStem: 90 86<121 479> 534 86<121 479>
LayerCount: 2
Fore
SplineSet
620 565 m 1
 620 35 l 1
 90 35 l 1
 90 565 l 1
 620 565 l 1
534 479 m 1
 176 479 l 1
 176 121 l 1
 534 121 l 1
 534 479 l 1
EndSplineSet
EndChar

StartChar: uni25A0
Encoding: 118 9632 118
Width: 710
Flags: HW
HStem: 35 530<90 620>
VStem: 90 530<35 565>
LayerCount: 2
Fore
SplineSet
620 565 m 1
 620 35 l 1
 90 35 l 1
 90 565 l 1
 620 565 l 1
EndSplineSet
EndChar

StartChar: uni229F
Encoding: 119 8863 119
Width: 710
Flags: HW
HStem: 35 86<176 534> 257 86<176 534> 479 86<176 534>
VStem: 90 86<121 257 343 479> 534 86<121 257 343 479>
CounterMasks: 1 e0
LayerCount: 2
Fore
SplineSet
534 257 m 1
 176 257 l 1
 176 121 l 1
 534 121 l 1
 534 257 l 1
620 565 m 1
 620 35 l 1
 90 35 l 1
 90 565 l 1
 620 565 l 1
534 479 m 1
 176 479 l 1
 176 343 l 1
 534 343 l 1
 534 479 l 1
EndSplineSet
EndChar

StartChar: uni25EB
Encoding: 120 9707 120
Width: 710
Flags: HW
HStem: 35 86<176 312 398 534> 479 86<176 312 398 534>
VStem: 90 86<121 479> 312 86<121 479> 534 86<121 479>
CounterMasks: 1 38
LayerCount: 2
Fore
SplineSet
312 121 m 1
 312 479 l 1
 176 479 l 1
 176 121 l 1
 312 121 l 1
398 121 m 1
 534 121 l 1
 534 479 l 1
 398 479 l 1
 398 121 l 1
620 565 m 1
 620 35 l 1
 90 35 l 1
 90 565 l 1
 620 565 l 1
EndSplineSet
EndChar

StartChar: uni29C4
Encoding: 121 10692 121
Width: 710
Flags: HW
HStem: 35 86<237 534> 479 86<176 473>
VStem: 90 86<181 479> 534 86<121 418>
LayerCount: 2
Fore
SplineSet
176 181 m 1
 473 479 l 1
 176 479 l 1
 176 181 l 1
534 418 m 1
 237 121 l 1
 534 121 l 1
 534 418 l 1
620 565 m 1
 620 35 l 1
 90 35 l 1
 90 565 l 1
 620 565 l 1
EndSplineSet
EndChar

StartChar: uni29C5
Encoding: 122 10693 122
Width: 710
Flags: HW
HStem: 35 86<176 473> 479 86<237 534>
VStem: 90 86<121 419> 534 86<182 479>
LayerCount: 2
Fore
SplineSet
473 121 m 1
 176 419 l 1
 176 121 l 1
 473 121 l 1
534 182 m 1
 534 479 l 1
 237 479 l 1
 534 182 l 1
620 565 m 1
 620 35 l 1
 90 35 l 1
 90 565 l 1
 620 565 l 1
EndSplineSet
EndChar

StartChar: uni229E
Encoding: 123 8862 123
Width: 710
Flags: HW
HStem: 35 86<176 312 398 534> 257 86<176 312 398 534> 479 86<176 312 398 534>
VStem: 90 86<121 257 343 479> 312 86<121 257 343 479> 534 86<121 257 343 479>
CounterMasks: 1 fc
LayerCount: 2
Fore
SplineSet
312 257 m 1
 176 257 l 1
 176 121 l 1
 312 121 l 1
 312 257 l 1
398 257 m 1
 398 121 l 1
 534 121 l 1
 534 257 l 1
 398 257 l 1
312 343 m 1
 312 479 l 1
 176 479 l 1
 176 343 l 1
 312 343 l 1
398 343 m 1
 534 343 l 1
 534 479 l 1
 398 479 l 1
 398 343 l 1
620 565 m 1
 620 35 l 1
 90 35 l 1
 90 565 l 1
 620 565 l 1
EndSplineSet
EndChar

StartChar: uni22A0
Encoding: 124 8864 124
Width: 710
Flags: HW
HStem: 35 86<237 473> 479 86<237 473>
VStem: 90 86<181 419> 534 86<182 418>
LayerCount: 2
Fore
SplineSet
355 239 m 1
 237 121 l 1
 473 121 l 1
 355 239 l 1
416 300 m 1
 534 182 l 1
 534 418 l 1
 416 300 l 1
295 300 m 1
 176 419 l 1
 176 181 l 1
 295 300 l 1
355 361 m 1
 473 479 l 1
 237 479 l 1
 355 361 l 1
620 565 m 1
 620 35 l 1
 90 35 l 1
 90 565 l 1
 620 565 l 1
EndSplineSet
EndChar

StartChar: uni22A1
Encoding: 125 8865 125
Width: 710
Flags: HW
HStem: 35 86<176 534> 206 188<315.694 395.074> 479 86<176 534>
VStem: 90 86<121 479> 261 188<260.251 339.749> 534 86<121 479>
CounterMasks: 1 fc
LayerCount: 2
Fore
SplineSet
620 565 m 1
 620 35 l 1
 90 35 l 1
 90 565 l 1
 620 565 l 1
534 479 m 1
 176 479 l 1
 176 121 l 1
 534 121 l 1
 534 479 l 1
449 300 m 0
 449 281 428 260 412 244 c 0
 395 227 374 206 355 206 c 0
 336 206 316 227 299 244 c 0
 282 260 261 281 261 300 c 0
 261 319 282 340 299 356 c 0
 316 373 336 394 355 394 c 0
 374 394 395 373 412 356 c 0
 428 340 449 319 449 300 c 0
EndSplineSet
EndChar

StartChar: uni29C8
Encoding: 126 10696 126
Width: 710
Flags: HW
HStem: 35 86<176 534> 177 69<301 410> 354 69<301 410> 479 86<176 534>
VStem: 90 86<121 479> 232 69<246 354> 410 68<246 354> 534 86<121 479>
LayerCount: 2
Fore
SplineSet
620 565 m 1
 620 35 l 1
 90 35 l 1
 90 565 l 1
 620 565 l 1
534 479 m 1
 176 479 l 1
 176 121 l 1
 534 121 l 1
 534 479 l 1
478 423 m 1
 478 177 l 1
 232 177 l 1
 232 423 l 1
 478 423 l 1
410 354 m 1
 301 354 l 1
 301 246 l 1
 410 246 l 1
 410 354 l 1
EndSplineSet
EndChar

StartChar: uni2B1C
Encoding: 127 11036 127
Width: 944
Flags: HW
HStem: -82 86<176 768> 596 86<176 768>
VStem: 90 86<4 596> 768 86<4 596>
LayerCount: 2
Fore
SplineSet
854 682 m 1
 854 -82 l 1
 90 -82 l 1
 90 682 l 1
 854 682 l 1
768 596 m 1
 176 596 l 1
 176 4 l 1
 768 4 l 1
 768 596 l 1
EndSplineSet
EndChar

StartChar: uni2B1B
Encoding: 128 11035 128
Width: 944
Flags: HW
HStem: -82 764<90 854>
VStem: 90 764<-82 682>
LayerCount: 2
Fore
SplineSet
854 682 m 1
 854 -82 l 1
 90 -82 l 1
 90 682 l 1
 854 682 l 1
EndSplineSet
EndChar

StartChar: uni22C4
Encoding: 129 8900 129
Width: 660
Flags: HW
LayerCount: 2
Fore
SplineSet
330 558 m 1
 588 300 l 1
 330 42 l 1
 72 300 l 1
 330 558 l 1
330 436 m 1
 194 300 l 1
 330 164 l 1
 466 300 l 1
 330 436 l 1
EndSplineSet
EndChar

StartChar: uni2B29
Encoding: 130 11049 130
Width: 660
Flags: HW
LayerCount: 2
Fore
SplineSet
330 558 m 1
 588 300 l 1
 330 42 l 1
 72 300 l 1
 330 558 l 1
EndSplineSet
EndChar

StartChar: uni25C7
Encoding: 131 9671 131
Width: 930
Flags: HW
LayerCount: 2
Fore
SplineSet
465 693 m 1
 858 300 l 1
 465 -93 l 1
 72 300 l 1
 465 693 l 1
465 571 m 1
 194 300 l 1
 465 29 l 1
 736 300 l 1
 465 571 l 1
EndSplineSet
EndChar

StartChar: uni25C6
Encoding: 132 9670 132
Width: 930
Flags: HW
LayerCount: 2
Fore
SplineSet
465 693 m 1
 858 300 l 1
 465 -93 l 1
 72 300 l 1
 465 693 l 1
EndSplineSet
EndChar

StartChar: sym011
Encoding: 133 -1 133
Width: 930
Flags: HW
HStem: 257 86<237 693>
LayerCount: 2
Fore
SplineSet
693 257 m 1
 237 257 l 1
 465 29 l 1
 693 257 l 1
693 343 m 1
 465 571 l 1
 237 343 l 1
 693 343 l 1
465 693 m 1
 858 300 l 1
 465 -93 l 1
 72 300 l 1
 465 693 l 1
EndSplineSet
EndChar

StartChar: sym012
Encoding: 134 -1 134
Width: 930
Flags: HW
VStem: 422 86<72 528>
LayerCount: 2
Fore
SplineSet
422 72 m 1
 422 528 l 1
 194 300 l 1
 422 72 l 1
508 528 m 1
 508 72 l 1
 736 300 l 1
 508 528 l 1
465 693 m 1
 858 300 l 1
 465 -93 l 1
 72 300 l 1
 465 693 l 1
EndSplineSet
EndChar

StartChar: sym013
Encoding: 135 -1 135
Width: 930
Flags: HW
LayerCount: 2
Fore
SplineSet
630 406 m 1
 360 134 l 1
 465 29 l 1
 736 300 l 1
 630 406 l 1
465 693 m 1
 858 300 l 1
 465 -93 l 1
 72 300 l 1
 465 693 l 1
465 571 m 1
 194 300 l 1
 300 194 l 1
 570 466 l 1
 465 571 l 1
EndSplineSet
EndChar

StartChar: sym014
Encoding: 136 -1 136
Width: 930
Flags: HW
LayerCount: 2
Fore
SplineSet
570 134 m 1
 300 406 l 1
 194 300 l 1
 465 29 l 1
 570 134 l 1
630 194 m 1
 736 300 l 1
 465 571 l 1
 360 466 l 1
 630 194 l 1
465 693 m 1
 858 300 l 1
 465 -93 l 1
 72 300 l 1
 465 693 l 1
EndSplineSet
EndChar

StartChar: sym015
Encoding: 137 -1 137
Width: 930
Flags: HW
HStem: 257 86<237 422 508 693>
VStem: 422 86<72 257 343 528>
LayerCount: 2
Fore
SplineSet
422 257 m 1
 237 257 l 1
 422 72 l 1
 422 257 l 1
508 257 m 1
 508 72 l 1
 693 257 l 1
 508 257 l 1
422 343 m 1
 422 528 l 1
 237 343 l 1
 422 343 l 1
508 343 m 1
 693 343 l 1
 508 528 l 1
 508 343 l 1
465 693 m 1
 858 300 l 1
 465 -93 l 1
 72 300 l 1
 465 693 l 1
EndSplineSet
EndChar

StartChar: sym016
Encoding: 138 -1 138
Width: 930
Flags: HW
LayerCount: 2
Fore
SplineSet
465 240 m 1
 360 134 l 1
 465 29 l 1
 570 134 l 1
 465 240 l 1
525 300 m 1
 630 194 l 1
 736 300 l 1
 630 406 l 1
 525 300 l 1
405 300 m 1
 300 406 l 1
 194 300 l 1
 300 194 l 1
 405 300 l 1
465 360 m 1
 570 466 l 1
 465 571 l 1
 360 466 l 1
 465 360 l 1
465 693 m 1
 858 300 l 1
 465 -93 l 1
 72 300 l 1
 465 693 l 1
EndSplineSet
EndChar

StartChar: uni27D0
Encoding: 139 10192 139
Width: 930
Flags: HW
HStem: 206 188<425.251 504.749>
VStem: 371 188<260.251 339.749>
LayerCount: 2
Fore
SplineSet
465 693 m 1
 858 300 l 1
 465 -93 l 1
 72 300 l 1
 465 693 l 1
465 571 m 1
 194 300 l 1
 465 29 l 1
 736 300 l 1
 465 571 l 1
559 300 m 0
 559 281 538 260 521 244 c 0
 505 227 484 206 465 206 c 0
 446 206 425 227 409 244 c 0
 392 260 371 281 371 300 c 0
 371 319 392 340 409 356 c 0
 425 373 446 394 465 394 c 0
 484 394 505 373 521 356 c 0
 538 340 559 319 559 300 c 0
EndSplineSet
EndChar

StartChar: sym017
Encoding: 140 -1 140
Width: 930
Flags: HW
LayerCount: 2
Fore
SplineSet
465 693 m 1
 858 300 l 1
 465 -93 l 1
 72 300 l 1
 465 693 l 1
465 571 m 1
 194 300 l 1
 465 29 l 1
 736 300 l 1
 465 571 l 1
465 481 m 1
 646 300 l 1
 465 119 l 1
 284 300 l 1
 465 481 l 1
465 384 m 1
 381 300 l 1
 465 216 l 1
 549 300 l 1
 465 384 l 1
EndSplineSet
EndChar

StartChar: uni2B2B
Encoding: 141 11051 141
Width: 580
Flags: HW
LayerCount: 2
Fore
SplineSet
90 300 m 1
 290 620 l 1
 490 300 l 1
 290 -20 l 1
 90 300 l 1
191 300 m 1
 290 142 l 1
 389 300 l 1
 290 458 l 1
 191 300 l 1
EndSplineSet
EndChar

StartChar: uni2B2A
Encoding: 142 11050 142
Width: 580
Flags: HW
LayerCount: 2
Fore
SplineSet
90 300 m 1
 290 620 l 1
 490 300 l 1
 290 -20 l 1
 90 300 l 1
EndSplineSet
EndChar

StartChar: lozenge
Encoding: 143 9674 143
Width: 710
Flags: HW
LayerCount: 2
Fore
SplineSet
90 300 m 1
 355 724 l 1
 620 300 l 1
 355 -124 l 1
 90 300 l 1
191 300 m 1
 355 38 l 1
 519 300 l 1
 355 562 l 1
 191 300 l 1
EndSplineSet
EndChar

StartChar: uni29EB
Encoding: 144 10731 144
Width: 710
Flags: HW
LayerCount: 2
Fore
SplineSet
90 300 m 1
 355 724 l 1
 620 300 l 1
 355 -124 l 1
 90 300 l 1
EndSplineSet
EndChar

StartChar: uni27E0
Encoding: 145 10208 145
Width: 710
Flags: HW
HStem: 257 86<218 492>
LayerCount: 2
Fore
SplineSet
492 257 m 1
 218 257 l 1
 355 38 l 1
 492 257 l 1
218 343 m 1
 492 343 l 1
 355 562 l 1
 218 343 l 1
90 300 m 1
 355 724 l 1
 620 300 l 1
 355 -124 l 1
 90 300 l 1
EndSplineSet
EndChar

StartChar: uni2B52
Encoding: 146 11090 146
Width: 780
Flags: HW
HStem: -9 21G<194.128 216.652 563.348 585.872> 310 70<263 309 471 517>
LayerCount: 2
Fore
SplineSet
390 612 m 1
 471 380 l 1
 716 375 l 1
 520 226 l 1
 592 -9 l 1
 390 132 l 1
 188 -9 l 1
 260 226 l 1
 64 375 l 1
 309 380 l 1
 390 612 l 1
390 402 m 1
 359 312 l 1
 263 310 l 1
 339 252 l 1
 312 161 l 1
 390 215 l 1
 468 161 l 1
 441 252 l 1
 517 310 l 1
 421 312 l 1
 390 402 l 1
EndSplineSet
EndChar

StartChar: uni22C6
Encoding: 147 8902 147
Width: 660
Flags: HW
HStem: 537 20G<322.984 337.016>
LayerCount: 2
Fore
SplineSet
330 557 m 1
 397 366 l 1
 599 362 l 1
 438 239 l 1
 496 45 l 1
 330 161 l 1
 164 45 l 1
 222 239 l 1
 61 362 l 1
 263 366 l 1
 330 557 l 1
EndSplineSet
EndChar

StartChar: uni2B50
Encoding: 148 11088 148
Width: 930
Flags: HW
HStem: 310 87<317 367 563 613>
LayerCount: 2
Fore
SplineSet
465 680 m 1
 563 397 l 1
 863 391 l 1
 624 210 l 1
 711 -76 l 1
 465 95 l 1
 219 -76 l 1
 306 210 l 1
 67 391 l 1
 367 397 l 1
 465 680 l 1
465 418 m 1
 428 313 l 1
 317 310 l 1
 406 243 l 1
 373 136 l 1
 465 200 l 1
 557 136 l 1
 524 243 l 1
 613 310 l 1
 502 313 l 1
 465 418 l 1
EndSplineSet
EndChar

StartChar: uni2B51
Encoding: 149 11089 149
Width: 930
Flags: HW
LayerCount: 2
Fore
SplineSet
465 680 m 1
 563 397 l 1
 863 391 l 1
 624 210 l 1
 711 -76 l 1
 465 95 l 1
 219 -76 l 1
 306 210 l 1
 67 391 l 1
 367 397 l 1
 465 680 l 1
EndSplineSet
EndChar

StartChar: uni2606
Encoding: 150 9734 150
Width: 1260
Flags: HW
HStem: -225 21G<293.05 315.703 944.297 966.95> 346 90<325 493 767 935>
LayerCount: 2
Fore
SplineSet
630 830 m 1
 767 436 l 1
 1184 427 l 1
 852 175 l 1
 973 -225 l 1
 630 14 l 1
 287 -225 l 1
 408 175 l 1
 76 427 l 1
 493 436 l 1
 630 830 l 1
630 568 m 1
 555 351 l 1
 325 346 l 1
 508 207 l 1
 441 -13 l 1
 630 119 l 1
 819 -13 l 1
 752 207 l 1
 935 346 l 1
 705 351 l 1
 630 568 l 1
EndSplineSet
EndChar

StartChar: uni2605
Encoding: 151 9733 151
Width: 1260
Flags: HW
HStem: -225 21G<293.05 315.703 944.297 966.95>
LayerCount: 2
Fore
SplineSet
630 830 m 1
 767 436 l 1
 1184 427 l 1
 852 175 l 1
 973 -225 l 1
 630 14 l 1
 287 -225 l 1
 408 175 l 1
 76 427 l 1
 493 436 l 1
 630 830 l 1
EndSplineSet
EndChar

StartChar: asteriskmath
Encoding: 152 8727 152
Width: 660
Flags: HW
LayerCount: 2
Fore
SplineSet
403 300 m 1
 567 230 l 1
 509 130 l 1
 366 237 l 1
 387 60 l 1
 273 60 l 1
 294 237 l 1
 151 130 l 1
 93 230 l 1
 257 300 l 1
 93 370 l 1
 151 470 l 1
 294 363 l 1
 273 540 l 1
 387 540 l 1
 366 363 l 1
 509 470 l 1
 567 370 l 1
 403 300 l 1
EndSplineSet
EndChar

StartChar: infinity
Encoding: 153 8734 153
Width: 1044
Flags: HW
HStem: 62 86<230.297 355.962 688.038 813.703> 452 86<230.297 355.962 688.038 813.703>
VStem: 90 86<209.376 390.624> 868 86<209.376 390.624>
LayerCount: 2
Fore
SplineSet
579 300 m 1
 632 233 671 148 755 148 c 0
 826 148 868 222 868 300 c 0
 868 378 826 452 755 452 c 0
 671 452 632 367 579 300 c 1
522 363 m 1
 591 443 651 538 755 538 c 0
 873 538 954 425 954 300 c 0
 954 175 873 62 755 62 c 0
 651 62 591 157 522 237 c 1
 453 157 393 62 289 62 c 0
 171 62 90 175 90 300 c 0
 90 425 171 538 289 538 c 0
 393 538 453 443 522 363 c 1
465 300 m 1
 412 367 373 452 289 452 c 0
 218 452 176 378 176 300 c 0
 176 222 218 148 289 148 c 0
 373 148 412 233 465 300 c 1
EndSplineSet
EndChar

StartChar: proportional
Encoding: 154 8733 154
Width: 948
Flags: HW
HStem: 62 86<232.402 358.479 697.917 858> 452 86<232.402 358.479 697.917 858>
VStem: 90 86<210.845 389.155>
LayerCount: 2
Fore
SplineSet
466 300 m 1
 414 367 376 452 292 452 c 0
 220 452 176 378 176 300 c 0
 176 222 220 148 292 148 c 0
 376 148 414 233 466 300 c 1
858 538 m 1
 858 452 l 1
 767 452 l 2
 680 452 635 368 579 300 c 1
 635 232 680 148 767 148 c 2
 858 148 l 1
 858 62 l 1
 767 62 l 2
 660 62 594 156 522 237 c 1
 454 157 395 62 292 62 c 0
 173 62 90 175 90 300 c 0
 90 425 173 538 292 538 c 0
 395 538 454 443 522 363 c 1
 594 444 660 538 767 538 c 2
 858 538 l 1
EndSplineSet
EndChar

StartChar: sym018
Encoding: 155 -1 155
Width: 948
Flags: HW
HStem: 62 86<90 250.083 589.908 716.034> 452 86<90 250.083 589.908 716.034>
VStem: 772 86<210.845 389.155>
LayerCount: 2
Fore
SplineSet
482 300 m 1
 534 233 572 148 657 148 c 0
 728 148 772 222 772 300 c 0
 772 378 728 452 657 452 c 0
 572 452 534 367 482 300 c 1
90 62 m 1
 90 148 l 1
 181 148 l 2
 268 148 313 232 369 300 c 1
 313 368 268 452 181 452 c 2
 90 452 l 1
 90 538 l 1
 181 538 l 2
 288 538 354 444 426 363 c 1
 494 443 553 538 657 538 c 0
 775 538 858 425 858 300 c 0
 858 175 775 62 657 62 c 0
 553 62 494 157 426 237 c 1
 354 156 288 62 181 62 c 2
 90 62 l 1
EndSplineSet
EndChar

StartChar: sym019
Encoding: 156 -1 156
Width: 852
Flags: HW
HStem: 62 86<90 250.083 601.917 762> 452 86<90 250.083 601.917 762>
LayerCount: 2
Fore
SplineSet
90 538 m 1
 181 538 l 2
 288 538 354 443 426 362 c 1
 498 443 564 538 671 538 c 2
 762 538 l 1
 762 452 l 1
 671 452 l 2
 584 452 539 368 483 300 c 1
 539 232 584 148 671 148 c 2
 762 148 l 1
 762 62 l 1
 671 62 l 2
 564 62 498 157 426 238 c 1
 354 157 288 62 181 62 c 2
 90 62 l 1
 90 148 l 1
 181 148 l 2
 268 148 313 232 369 300 c 1
 313 368 268 452 181 452 c 2
 90 452 l 1
 90 538 l 1
EndSplineSet
EndChar

StartChar: uni226C
Encoding: 157 8812 157
Width: 461
Flags: HW
VStem: 90 86<188.267 411.733> 285 86<189.603 410.397>
LayerCount: 2
Fore
SplineSet
230 475 m 1
 196 422 176 364 176 300 c 0
 176 236 196 178 230 125 c 1
 264 178 285 236 285 300 c 0
 285 364 264 422 230 475 c 1
354 -7 m 1
 302 -75 l 1
 277 -56 252 -35 230 -12 c 1
 208 -35 184 -56 159 -75 c 1
 107 -7 l 1
 131 12 154 32 175 54 c 1
 123 126 90 210 90 300 c 0
 90 390 123 474 175 546 c 1
 154 568 131 588 107 607 c 1
 159 675 l 1
 184 656 208 635 230 612 c 1
 252 635 277 656 302 675 c 1
 354 607 l 1
 330 588 307 568 286 546 c 1
 338 474 371 390 371 300 c 0
 371 210 338 126 286 54 c 1
 307 32 330 12 354 -7 c 1
EndSplineSet
EndChar

StartChar: uni22BA
Encoding: 158 8890 158
Width: 570
Flags: HW
HStem: -220 21G<242 328> 460 86<90 242 328 480>
VStem: 242 86<-220 460>
LayerCount: 2
Fore
SplineSet
328 -220 m 1
 242 -220 l 1
 242 460 l 1
 90 460 l 1
 90 546 l 1
 480 546 l 1
 480 460 l 1
 328 460 l 1
 328 -220 l 1
EndSplineSet
EndChar

StartChar: uni2240
Encoding: 159 8768 159
Width: 396
Flags: HW
VStem: 90 86<127.607 234.883> 220 86<365.117 472.393>
LayerCount: 2
Fore
SplineSet
152 515 m 1
 198 570 l 1
 248 528 306 485 306 421 c 0
 306 362 270 311 228 269 c 0
 202 244 176 216 176 179 c 0
 176 139 212 111 244 85 c 1
 198 30 l 1
 148 72 90 115 90 179 c 0
 90 238 126 289 168 331 c 0
 194 356 220 384 220 421 c 0
 220 461 184 489 152 515 c 1
EndSplineSet
EndChar

StartChar: angle
Encoding: 160 8736 160
Width: 720
Flags: HW
HStem: 30 86<188 630>
LayerCount: 2
Fore
SplineSet
630 116 m 1
 630 30 l 1
 97 30 l 1
 71 116 l 1
 490 572 l 1
 554 513 l 1
 188 116 l 1
 630 116 l 1
EndSplineSet
EndChar

StartChar: uni29A3
Encoding: 161 10659 161
Width: 720
Flags: HW
HStem: 30 86<90 532>
LayerCount: 2
Fore
SplineSet
90 116 m 1
 532 116 l 1
 166 513 l 1
 230 572 l 1
 649 116 l 1
 623 30 l 1
 90 30 l 1
 90 116 l 1
EndSplineSet
EndChar

StartChar: uni2221
Encoding: 162 8737 162
Width: 720
Flags: HW
HStem: 30 86<188 404 488.435 630>
VStem: 404 87<116 195.483>
LayerCount: 2
Fore
SplineSet
404 116 m 1
 396 175 372 230 334 275 c 1
 188 116 l 1
 404 116 l 1
630 116 m 1
 630 30 l 1
 97 30 l 1
 71 116 l 1
 490 572 l 1
 554 513 l 1
 393 339 l 1
 448 276 482 199 491 116 c 1
 630 116 l 1
EndSplineSet
EndChar

StartChar: uni299B
Encoding: 163 10651 163
Width: 720
Flags: HW
HStem: 30 86<90 231.565 316 532>
VStem: 229 87<116 195.483>
LayerCount: 2
Fore
SplineSet
386 275 m 1
 348 230 324 175 316 116 c 1
 532 116 l 1
 386 275 l 1
327 339 m 1
 166 513 l 1
 230 572 l 1
 649 116 l 1
 623 30 l 1
 90 30 l 1
 90 116 l 1
 229 116 l 1
 238 199 272 276 327 339 c 1
EndSplineSet
EndChar

StartChar: uni2222
Encoding: 164 8738 164
Width: 720
Flags: HW
VStem: 455 86<209.956 390.044>
LayerCount: 2
Fore
SplineSet
435 209 m 1
 449 238 455 269 455 300 c 0
 455 331 449 362 435 391 c 1
 237 300 l 1
 435 209 l 1
594 558 m 1
 630 480 l 1
 513 427 l 1
 532 387 541 343 541 300 c 0
 541 257 532 213 513 173 c 1
 630 120 l 1
 594 42 l 1
 90 272 l 1
 90 328 l 1
 594 558 l 1
EndSplineSet
EndChar

StartChar: uni29A1
Encoding: 165 10657 165
Width: 720
Flags: HW
HStem: 395 86<269.956 450.044>
LayerCount: 2
Fore
SplineSet
451 375 m 1
 422 389 391 395 360 395 c 0
 329 395 298 389 269 375 c 1
 360 177 l 1
 451 375 l 1
102 534 m 1
 180 570 l 1
 233 453 l 1
 273 472 317 481 360 481 c 0
 403 481 447 472 487 453 c 1
 540 570 l 1
 618 534 l 1
 388 30 l 1
 332 30 l 1
 102 534 l 1
EndSplineSet
EndChar

StartChar: uni29A0
Encoding: 166 10656 166
Width: 720
Flags: HW
VStem: 179 86<209.956 390.044>
LayerCount: 2
Fore
SplineSet
285 391 m 1
 271 362 265 331 265 300 c 0
 265 269 271 238 285 209 c 1
 484 300 l 1
 285 391 l 1
126 42 m 1
 90 120 l 1
 207 173 l 1
 188 213 179 257 179 300 c 0
 179 343 188 387 207 427 c 1
 90 480 l 1
 126 558 l 1
 630 328 l 1
 630 272 l 1
 126 42 l 1
EndSplineSet
EndChar

StartChar: sym01A
Encoding: 167 -1 167
Width: 720
Flags: HW
HStem: 119 86<269.956 450.044>
LayerCount: 2
Fore
SplineSet
269 225 m 1
 298 211 329 205 360 205 c 0
 391 205 422 211 451 225 c 1
 360 423 l 1
 269 225 l 1
618 66 m 1
 540 30 l 1
 487 147 l 1
 447 128 403 119 360 119 c 0
 317 119 273 128 233 147 c 1
 180 30 l 1
 102 66 l 1
 332 570 l 1
 388 570 l 1
 618 66 l 1
EndSplineSet
EndChar

StartChar: uni221F
Encoding: 168 8735 168
Width: 720
Flags: HW
HStem: 30 86<176 630>
VStem: 90 86<116 570>
LayerCount: 2
Fore
SplineSet
90 570 m 1
 176 570 l 1
 176 116 l 1
 630 116 l 1
 630 30 l 1
 90 30 l 1
 90 570 l 1
EndSplineSet
EndChar

StartChar: uni22BE
Encoding: 169 8894 169
Width: 720
Flags: HW
HStem: 30 86<176 362 448 630> 302 86<176 260.798>
VStem: 90 86<116 302 388 570> 362 86<116 200.798>
LayerCount: 2
Fore
SplineSet
362 116 m 1
 362 219 279 302 176 302 c 1
 176 116 l 1
 362 116 l 1
90 570 m 1
 176 570 l 1
 176 388 l 1
 326 388 448 266 448 116 c 1
 630 116 l 1
 630 30 l 1
 90 30 l 1
 90 570 l 1
EndSplineSet
EndChar

StartChar: uni299C
Encoding: 170 10652 170
Width: 720
Flags: HW
HStem: 30 86<176 317 403 630> 257 86<176 317>
VStem: 90 86<116 257 343 570> 317 86<116 257>
LayerCount: 2
Fore
SplineSet
317 257 m 1
 176 257 l 1
 176 116 l 1
 317 116 l 1
 317 257 l 1
90 570 m 1
 176 570 l 1
 176 343 l 1
 403 343 l 1
 403 116 l 1
 630 116 l 1
 630 30 l 1
 90 30 l 1
 90 570 l 1
EndSplineSet
EndChar

StartChar: uni299D
Encoding: 171 10653 171
Width: 720
Flags: HW
HStem: 30 86<176 362 448 630> 139 94<215.489 277.253> 302 86<176 260.798>
VStem: 90 86<116 302 388 570> 200 94<155.747 217.511> 362 86<116 200.798>
LayerCount: 2
Fore
SplineSet
362 116 m 1
 362 219 279 302 176 302 c 1
 176 116 l 1
 362 116 l 1
90 570 m 1
 176 570 l 1
 176 388 l 1
 326 388 448 266 448 116 c 1
 630 116 l 1
 630 30 l 1
 90 30 l 1
 90 570 l 1
247 233 m 0
 260 233 294 200 294 186 c 0
 294 174 259 139 247 139 c 0
 233 139 200 173 200 186 c 0
 200 201 232 233 247 233 c 0
EndSplineSet
EndChar

StartChar: minute
Encoding: 172 8242 172
Width: 266
Flags: HW
VStem: 60 206
LayerCount: 2
Fore
SplineSet
266 603 m 1
 175 67 l 1
 60 67 l 1
 120 603 l 1
 266 603 l 1
EndSplineSet
EndChar

StartChar: uni2035
Encoding: 173 8245 173
Width: 266
Flags: HW
VStem: 0 206
LayerCount: 2
Fore
SplineSet
0 603 m 1
 146 603 l 1
 206 67 l 1
 91 67 l 1
 0 603 l 1
EndSplineSet
EndChar

StartChar: product.small
Encoding: 174 -1 174
Width: 720
Flags: HW
HStem: 30 53<99 142.269 263.677 306 414 456.323 577.731 621> 484 86<262 458> 516 54<93 142.38 577.62 627>
VStem: 144 118<92.6673 484> 458 118<92.6673 484>
LayerCount: 2
Fore
SplineSet
99 30 m 1xd8
 90 83 l 1
 113 89 144 97 144 110 c 2
 144 489 l 2
 144 503 115 510 93 516 c 1
 90 570 l 1
 630 570 l 1
 627 516 l 1xb8
 605 510 576 503 576 489 c 2
 576 110 l 2
 576 97 607 89 630 83 c 1
 621 30 l 1
 414 30 l 1
 405 83 l 1
 428 89 458 97 458 110 c 2
 458 484 l 1
 262 484 l 1
 262 110 l 2
 262 97 292 89 315 83 c 1
 306 30 l 1
 99 30 l 1xd8
EndSplineSet
EndChar

StartChar: product.sf.small
Encoding: 175 -1 175
Width: 720
Flags: HW
HStem: 455 115<90 148 263 457 572 630>
VStem: 148 115<30 455> 457 115<30 455>
LayerCount: 2
Fore
SplineSet
148 30 m 1
 148 455 l 1
 90 455 l 1
 90 570 l 1
 630 570 l 1
 630 455 l 1
 572 455 l 1
 572 30 l 1
 457 30 l 1
 457 455 l 1
 263 455 l 1
 263 30 l 1
 148 30 l 1
EndSplineSet
EndChar

StartChar: uni2A3F
Encoding: 176 10815 176
Width: 720
Flags: HW
HStem: 30 86<262 458> 30 54<93 142.38 577.62 627> 517 53<99 142.269 263.677 306 414 456.323 577.731 621>
VStem: 144 118<116 507.333> 458 118<116 507.333>
LayerCount: 2
Fore
SplineSet
99 570 m 1x78
 306 570 l 1
 315 517 l 1
 292 511 262 503 262 490 c 2
 262 116 l 1
 458 116 l 1xb8
 458 490 l 2
 458 503 428 511 405 517 c 1
 414 570 l 1
 621 570 l 1
 630 517 l 1
 607 511 576 503 576 490 c 2
 576 111 l 2
 576 97 605 90 627 84 c 1
 630 30 l 1
 90 30 l 1
 93 84 l 1
 115 90 144 97 144 111 c 2
 144 490 l 2
 144 503 113 511 90 517 c 1
 99 570 l 1x78
EndSplineSet
EndChar

StartChar: uni2A3F.sf
Encoding: 177 -1 177
Width: 720
Flags: HW
HStem: 30 115<90 148 263 457 572 630>
VStem: 148 115<145 570> 457 115<145 570>
LayerCount: 2
Fore
SplineSet
148 570 m 1
 263 570 l 1
 263 145 l 1
 457 145 l 1
 457 570 l 1
 572 570 l 1
 572 145 l 1
 630 145 l 1
 630 30 l 1
 90 30 l 1
 90 145 l 1
 148 145 l 1
 148 570 l 1
EndSplineSet
EndChar

StartChar: integral.small
Encoding: 178 -1 178
Width: 482
Flags: HW
HStem: 0 96<129 176.329> 661 94<304.944 368.514>
VStem: 183 115<98.7188 655.688>
LayerCount: 2
Fore
SplineSet
390 747 m 1
 365 653 l 1
 354 658 342 661 330 661 c 0
 305 661 298 628 298 598 c 2
 298 162 l 2
 298 72 225 0 136 -0 c 0
 134 0 131 0 129 0 c 1
 116 96 l 1
 151 96 l 2
 178 96 183 130 183 162 c 2
 183 598 l 2
 183 685 255 755 341 755 c 0
 348 755 371 754 390 747 c 1
EndSplineSet
EndChar

StartChar: uni2713
Encoding: 179 10003 179
Width: 926
Flags: HW
HStem: 0 21G<216.889 377> 726 28<809.564 831>
LayerCount: 2
Fore
SplineSet
90 271 m 1
 189 329 l 1
 287 136 l 1
 401 362 522 589 716 752 c 0
 719 754 791 754 831 754 c 1
 836 726 l 1
 813 716 791 702 771 686 c 0
 558 507 441 247 313 0 c 1
 227 0 l 1
 90 271 l 1
EndSplineSet
EndChar

StartChar: uni21AF
Encoding: 180 8623 180
Width: 626
Flags: HW
HStem: 530 20G<461.517 526.7>
LayerCount: 2
Fore
SplineSet
187 -108 m 1
 96 91 l 1
 174 127 l 1
 205 61 l 1
 333 406 l 1
 150 357 l 1
 382 942 l 1
 504 898 l 1
 320 492 l 1
 536 550 l 1
 297 36 l 1
 351 61 l 1
 387 -17 l 1
 187 -108 l 1
EndSplineSet
EndChar

StartChar: uni2662
Encoding: 181 9826 181
Width: 780
Flags: HW
HStem: 0 21G<345 435> 687 20G<345 435>
LayerCount: 2
Fore
SplineSet
390 0 m 1
 300 126 200 245 90 354 c 1
 200 462 300 581 390 707 c 1
 480 581 580 462 690 354 c 1
 580 245 480 126 390 0 c 1
390 133 m 1
 446 212 509 286 577 354 c 1
 509 421 446 495 390 574 c 1
 334 495 272 421 203 354 c 1
 272 286 334 212 390 133 c 1
EndSplineSet
EndChar

StartChar: diamond
Encoding: 182 9830 182
Width: 780
Flags: HW
HStem: 0 21G<345 435> 687 20G<345 435>
LayerCount: 2
Fore
SplineSet
390 0 m 1
 300 126 200 245 90 354 c 1
 200 462 300 581 390 707 c 1
 480 581 580 462 690 354 c 1
 580 245 480 126 390 0 c 1
EndSplineSet
EndChar

StartChar: uni2661
Encoding: 183 9825 183
Width: 840
Flags: HW
HStem: 0 21G<358.5 481.5> 687 20G<213.5 292.5 547.5 626.5>
VStem: 90 660<415.219 614.034>
LayerCount: 2
Fore
SplineSet
420 0 m 1
 297 176 90 312 90 530 c 0
 90 627 166 707 261 707 c 0
 324 707 375 663 420 619 c 1
 465 663 516 707 579 707 c 0
 674 707 750 627 750 530 c 0
 750 312 543 176 420 0 c 1
EndSplineSet
EndChar

StartChar: heart
Encoding: 184 9829 184
Width: 840
Flags: HW
HStem: 0 21G<358.5 481.5> 687 20G<213.5 292.5 547.5 626.5>
VStem: 90 660<415.219 614.034>
LayerCount: 2
Fore
SplineSet
420 0 m 1
 297 176 90 312 90 530 c 0
 90 627 166 707 261 707 c 0
 324 707 375 663 420 619 c 1
 465 663 516 707 579 707 c 0
 674 707 750 627 750 530 c 0
 750 312 543 176 420 0 c 1
EndSplineSet
EndChar

StartChar: spade
Encoding: 185 9824 185
Width: 780
Flags: HW
HStem: 0 21G<300 480> 687 20G<345.5 434.5>
VStem: 89 602<195.731 376.681>
LayerCount: 2
Fore
SplineSet
552 117 m 0
 492 117 461 158 450 178 c 1
 480 0 l 1
 300 0 l 1
 330 178 l 1
 299 124 250 117 228 117 c 0
 153 117 89 188 89 284 c 0
 89 464 301 553 390 707 c 1
 479 553 691 464 691 284 c 0
 691 188 627 117 552 117 c 0
EndSplineSet
EndChar

StartChar: club
Encoding: 186 9827 186
Width: 840
Flags: HW
HStem: 0 21G<330 510> 687 20G<374 466>
VStem: 90 660<214.964 376.518> 255 330<459.358 624.518>
LayerCount: 2
Fore
SplineSet
585 459 m 0xd0
 677 459 750 386 750 294 c 0xe0
 750 202 674 129 585 129 c 0
 549 129 514 141 485 163 c 1
 510 0 l 1
 330 0 l 1
 355 163 l 1
 326 141 291 129 255 129 c 0xd0
 166 129 90 202 90 294 c 0xe0
 90 386 163 459 255 459 c 0
 263 459 270 458 278 457 c 1
 263 482 255 512 255 542 c 0
 255 634 328 707 420 707 c 0
 512 707 585 634 585 542 c 0
 585 512 577 482 562 457 c 1
 570 458 577 459 585 459 c 0xd0
EndSplineSet
EndChar

StartChar: uni2720
Encoding: 187 10016 187
Width: 930
Flags: HW
HStem: 257 86<379 422 508 551>
VStem: 422 86<214 257 343 386>
LayerCount: 2
Fore
SplineSet
653 675 m 1
 508 386 l 1
 508 343 l 1
 551 343 l 1
 840 488 l 1
 840 112 l 1
 551 257 l 1
 508 257 l 1
 508 214 l 1
 653 -75 l 1
 278 -75 l 1
 422 214 l 1
 422 257 l 1
 379 257 l 1
 90 112 l 1
 90 488 l 1
 379 343 l 1
 422 343 l 1
 422 386 l 1
 278 675 l 1
 653 675 l 1
EndSplineSet
EndChar

StartChar: uni2721
Encoding: 188 10017 188
Width: 930
Flags: HW
HStem: 84 68<209 300 419 511 630 721> 448 68<209 300 419 511 630 721>
LayerCount: 2
Fore
SplineSet
300 152 m 1
 255 231 l 1
 209 152 l 1
 300 152 l 1
675 231 m 1
 630 152 l 1
 721 152 l 1
 675 231 l 1
511 516 m 1
 465 595 l 1
 419 516 l 1
 511 516 l 1
635 300 m 1
 550 448 l 1
 380 448 l 1
 295 300 l 1
 380 152 l 1
 550 152 l 1
 635 300 l 1
675 369 m 1
 721 448 l 1
 630 448 l 1
 675 369 l 1
300 448 m 1
 209 448 l 1
 255 369 l 1
 300 448 l 1
465 -133 m 1
 340 84 l 1
 90 84 l 1
 215 300 l 1
 90 516 l 1
 340 516 l 1
 465 733 l 1
 590 516 l 1
 840 516 l 1
 715 300 l 1
 840 84 l 1
 590 84 l 1
 465 -133 l 1
465 5 m 1
 511 84 l 1
 419 84 l 1
 465 5 l 1
EndSplineSet
EndChar

StartChar: uni2314
Encoding: 189 8980 189
Width: 720
Flags: HW
HStem: 480 86<244.215 475.785>
LayerCount: 2
Fore
SplineSet
513 441 m 1
 466 467 413 480 360 480 c 0
 307 480 254 467 207 441 c 1
 360 162 l 1
 513 441 l 1
554 516 m 2
 629 475 l 1
 385 30 l 1
 335 30 l 1
 91 475 l 1
 166 516 l 2
 226 549 293 566 360 566 c 0
 427 566 494 549 554 516 c 2
EndSplineSet
EndChar

StartChar: universal
Encoding: 190 8704 190
Width: 780
Flags: HW
HStem: 0 21G<305.777 474.223> 381 86<296 484> 687 20G<92 201.25 578.75 688>
LayerCount: 2
Fore
SplineSet
484 381 m 1
 296 381 l 1
 390 79 l 1
 484 381 l 1
92 707 m 1
 195 707 l 1
 270 467 l 1
 510 467 l 1
 585 707 l 1
 688 707 l 1
 468 0 l 1
 312 0 l 1
 92 707 l 1
EndSplineSet
EndChar

StartChar: existential
Encoding: 191 8707 191
Width: 660
Flags: HW
HStem: 0 86<90 463> 311 86<143 463> 621 86<90 463>
VStem: 463 107<86 311 397 621>
LayerCount: 2
Fore
SplineSet
90 0 m 1
 90 86 l 1
 463 86 l 1
 463 311 l 1
 143 311 l 1
 143 397 l 1
 463 397 l 1
 463 621 l 1
 90 621 l 1
 90 707 l 1
 570 707 l 1
 570 0 l 1
 90 0 l 1
EndSplineSet
EndChar

StartChar: uni2204
Encoding: 192 8708 192
Width: 660
Flags: HW
HStem: 0 86<90 169 271 463> 311 86<143 252 355 463> 621 86<90 335 438 463>
VStem: 463 107<86 311 397 621>
LayerCount: 2
Fore
SplineSet
355 397 m 1
 463 397 l 1
 463 621 l 1
 415 621 l 1
 355 397 l 1
271 86 m 1
 463 86 l 1
 463 311 l 1
 332 311 l 1
 271 86 l 1
395 846 m 1
 470 826 l 1
 438 707 l 1
 570 707 l 1
 570 0 l 1
 463 0 l 1
 248 0 l 1
 211 -139 l 1
 137 -119 l 1
 169 0 l 1
 90 0 l 1
 90 86 l 1
 192 86 l 1
 252 311 l 1
 143 311 l 1
 143 397 l 1
 275 397 l 1
 335 621 l 1
 90 621 l 1
 90 707 l 1
 358 707 l 1
 395 846 l 1
EndSplineSet
EndChar

StartChar: uni2132
Encoding: 193 8498 193
Width: 660
Flags: HW
HStem: 0 86<90 463> 311 86<143 463> 687 20G<463 570>
VStem: 463 107<86 311 397 707>
LayerCount: 2
Fore
SplineSet
90 0 m 1
 90 86 l 1
 463 86 l 1
 463 311 l 1
 143 311 l 1
 143 397 l 1
 463 397 l 1
 463 707 l 1
 570 707 l 1
 570 0 l 1
 90 0 l 1
EndSplineSet
EndChar

StartChar: uni2141
Encoding: 194 8513 194
Width: 780
Flags: HW
HStem: -11 108<224.516 428.782> 255 86<198 330> 545 21G<137.909 176> 600 107<210.754 423.051>
VStem: 90 108<120.553 255> 583 107<254.11 445.818>
LayerCount: 2
Fore
SplineSet
583 354 m 0
 583 496 455 600 317 600 c 0
 257 600 200 581 152 545 c 1
 90 633 l 1
 155 681 236 707 317 707 c 0
 511 707 690 557 690 354 c 0
 690 153 530 -11 330 -11 c 0
 243 -11 158 19 90 74 c 1
 90 341 l 1
 330 341 l 1
 330 255 l 1
 198 255 l 1
 198 131 l 1
 238 109 284 97 330 97 c 0
 470 97 583 212 583 354 c 0
EndSplineSet
EndChar

StartChar: uni2201
Encoding: 195 8705 195
Width: 600
Flags: HW
HStem: 0 108<236.794 363.409> 600 107<236.794 363.409>
VStem: 90 108<147.681 559.319> 403 107<147.681 204 503 559.319>
LayerCount: 2
Fore
SplineSet
510 503 m 1
 403 503 l 1
 403 558 355 600 300 600 c 0
 245 600 198 558 198 503 c 2
 198 204 l 2
 198 149 245 108 300 108 c 0
 355 108 403 149 403 204 c 1
 510 204 l 1
 510 90 415 0 300 0 c 0
 185 0 90 90 90 204 c 2
 90 503 l 2
 90 617 185 707 300 707 c 0
 415 707 510 617 510 503 c 1
EndSplineSet
EndChar

StartChar: uni266D
Encoding: 196 9837 196
Width: 566
Flags: HW
HStem: 460 86<224.993 330.883> 734 20G<90 176>
VStem: 90 86<122 413.298 508 754> 361 115<281.805 429.56>
LayerCount: 2
Fore
SplineSet
176 389 m 1
 176 122 l 1
 264 184 361 250 361 355 c 0
 361 409 332 460 283 460 c 0
 238 460 205 424 176 389 c 1
90 754 m 1
 176 754 l 1
 176 508 l 1
 208 531 243 546 283 546 c 0
 389 546 476 461 476 355 c 0
 476 227 254 72 90 -43 c 1
 90 754 l 1
EndSplineSet
EndChar

StartChar: uni266E
Encoding: 197 9838 197
Width: 566
Flags: HW
HStem: -220 21G<390 476> 0 21G<90 165> 526 20G<401 476> 734 20G<90 176>
VStem: 90 86<152 337 466 754> 390 86<-220 80 209 394>
LayerCount: 2
Fore
SplineSet
390 80 m 1
 90 0 l 1
 90 754 l 1
 176 754 l 1
 176 466 l 1
 476 546 l 1
 476 -220 l 1
 390 -220 l 1
 390 80 l 1
390 209 m 1
 390 394 l 1
 176 337 l 1
 176 152 l 1
 390 209 l 1
EndSplineSet
EndChar

StartChar: uni266F
Encoding: 198 9839 198
Width: 566
Flags: HW
HStem: -220 21G<144 230> 0 21G<90 144> 526 20G<423 476> 734 20G<337 423>
VStem: 144 86<-220 14 166 328 480 684> 337 86<-150 66 218 380 532 754>
LayerCount: 2
Fore
SplineSet
337 195 m 1
 337 380 l 1
 230 351 l 1
 230 166 l 1
 337 195 l 1
423 -150 m 1
 337 -150 l 1
 337 66 l 1
 230 37 l 1
 230 -220 l 1
 144 -220 l 1
 144 14 l 1
 90 0 l 1
 90 129 l 1
 144 143 l 1
 144 328 l 1
 90 314 l 1
 90 443 l 1
 144 457 l 1
 144 684 l 1
 230 684 l 1
 230 480 l 1
 337 509 l 1
 337 754 l 1
 423 754 l 1
 423 532 l 1
 476 546 l 1
 476 417 l 1
 423 403 l 1
 423 218 l 1
 476 232 l 1
 476 103 l 1
 423 89 l 1
 423 -150 l 1
EndSplineSet
EndChar

StartChar: aleph
Encoding: 199 8501 199
Width: 806
Flags: HW
HStem: 0 21G<90 219> 689 20G<601 716>
VStem: 90 129<0 223.681> 601 115<546.95 705>
LayerCount: 2
Fore
SplineSet
219 0 m 1
 90 0 l 1
 90 169 120 341 214 478 c 1
 162 540 118 608 90 685 c 1
 211 729 l 1
 265 581 375 469 482 354 c 1
 561 453 601 577 601 705 c 1
 716 709 l 1
 716 549 660 394 556 273 c 1
 622 196 681 116 716 20 c 1
 608 -20 l 1
 547 147 411 266 289 394 c 1
 223 279 219 136 219 0 c 1
EndSplineSet
EndChar

StartChar: uni2136
Encoding: 200 8502 200
Width: 806
Flags: HW
HStem: 0 125<107 530 638 699> 582 125<167 492.295>
VStem: 530 108<125 544.884>
LayerCount: 2
Fore
SplineSet
167 707 m 1
 399 707 l 2
 574 707 638 646 638 471 c 2
 638 125 l 1
 733 125 l 1
 699 0 l 1
 73 0 l 1
 107 125 l 1
 530 125 l 1
 530 471 l 2
 530 559 491 582 399 582 c 2
 133 582 l 1
 167 707 l 1
EndSplineSet
EndChar

StartChar: uni2137
Encoding: 201 8503 201
Width: 626
Flags: HW
HStem: 0 113<100 226.771>
LayerCount: 2
Fore
SplineSet
100 113 m 1
 146 113 l 2
 190 113 215 113 231 141 c 2
 349 345 l 1
 345 387 340 429 334 471 c 0
 329 505 310 535 281 552 c 2
 169 617 l 1
 234 729 l 1
 345 664 l 1
 491 580 417 279 536 0 c 1
 421 0 l 1
 393 65 377 133 366 203 c 1
 306 98 l 2
 272 40 235 0 146 0 c 2
 80 0 l 1
 100 113 l 1
EndSplineSet
EndChar

StartChar: uni2138
Encoding: 202 8504 202
Width: 746
Flags: HW
HStem: 0 21G<435 543> 582 125<107 435 543 639>
VStem: 435 108<0 582>
LayerCount: 2
Fore
SplineSet
107 707 m 1
 673 707 l 1
 639 582 l 1
 543 582 l 1
 543 0 l 1
 435 0 l 1
 435 582 l 1
 73 582 l 1
 107 707 l 1
EndSplineSet
EndChar

StartChar: weierstrass
Encoding: 203 8472 203
Width: 712
Flags: HW
HStem: -220 86<85.3141 145.308> 0 86<341.054 471.047> 433 86<378.233 536.583> 526 20G<145.5 192.297>
VStem: -8 85<-127.185 39.4376> 156 113<-122.586 -10.8122> 550 117<244.824 417.766>
LayerCount: 2
Fore
SplineSet
122 -134 m 0
 137 -134 156 -100 156 -74 c 0
 156 -32 119 13 96 41 c 1
 89 14 77 -36 77 -71 c 0
 77 -107 88 -134 122 -134 c 0
-8 -72 m 0
 -8 -49 -4 21 39 129 c 1
 29 156 25 185 25 215 c 0
 25 351 106 546 185 546 c 1
 212 472 l 1
 191 472 163 404 146 319 c 1
 237 437 360 519 496 519 c 0
 595 519 667 440 667 323 c 0
 667 154 524 0 386 0 c 0
 361 0 336 4 314 12 c 1
 347 97 l 1
 364 90 384 86 404 86 c 0
 436 86 471 99 492 127 c 0
 515 159 550 338 550 376 c 0
 550 427 497 433 478 433 c 0
 338 433 221 322 149 179 c 1
 179 102 269 58 269 -41 c 0
 269 -131 186 -220 103 -220 c 0
 26 -220 -8 -154 -8 -72 c 0
EndSplineSet
EndChar
